<?xml version="1.0" encoding="utf-8" standalone="no"?>
<!DOCTYPE svg PUBLIC "-//W3C//DTD SVG 1.1//EN"
  "http://www.w3.org/Graphics/SVG/1.1/DTD/svg11.dtd">
<svg xmlns:xlink="http://www.w3.org/1999/xlink" width="460.8pt" height="345.6pt" viewBox="0 0 460.8 345.6" xmlns="http://www.w3.org/2000/svg" version="1.1">
 <metadata>
  <rdf:RDF xmlns:dc="http://purl.org/dc/elements/1.1/" xmlns:cc="http://creativecommons.org/ns#" xmlns:rdf="http://www.w3.org/1999/02/22-rdf-syntax-ns#">
   <cc:Work>
    <dc:type rdf:resource="http://purl.org/dc/dcmitype/StillImage"/>
    <dc:date>2024-02-12T19:00:51.326753</dc:date>
    <dc:format>image/svg+xml</dc:format>
    <dc:creator>
     <cc:Agent>
      <dc:title>Matplotlib v3.8.2, https://matplotlib.org/</dc:title>
     </cc:Agent>
    </dc:creator>
   </cc:Work>
  </rdf:RDF>
 </metadata>
 <defs>
  <style type="text/css">*{stroke-linejoin: round; stroke-linecap: butt}</style>
 </defs>
 <g id="figure_1">
  <g id="patch_1">
   <path d="M 0 345.6 
L 460.8 345.6 
L 460.8 0 
L 0 0 
z
" style="fill: #ffffff"/>
  </g>
  <g id="axes_1">
   <g id="patch_2">
    <path d="M 100.718872 307.584 
L 371.601128 307.584 
L 371.601128 41.472 
L 100.718872 41.472 
z
" style="fill: #ffffff"/>
   </g>
   <g id="matplotlib.axis_1">
    <g id="xtick_1">
     <g id="line2d_1">
      <defs>
       <path id="med7cc6eb41" d="M 0 0 
L 0 3.5 
" style="stroke: #000000; stroke-width: 0.8"/>
      </defs>
      <g>
       <use xlink:href="#med7cc6eb41" x="105.054159" y="307.584" style="stroke: #000000; stroke-width: 0.8"/>
      </g>
     </g>
     <g id="text_1">
      <!-- −4 -->
      <g transform="translate(97.683066 322.182437) scale(0.1 -0.1)">
       <defs>
        <path id="DejaVuSans-2212" d="M 678 2272 
L 4684 2272 
L 4684 1741 
L 678 1741 
L 678 2272 
z
" transform="scale(0.015625)"/>
        <path id="DejaVuSans-34" d="M 2419 4116 
L 825 1625 
L 2419 1625 
L 2419 4116 
z
M 2253 4666 
L 3047 4666 
L 3047 1625 
L 3713 1625 
L 3713 1100 
L 3047 1100 
L 3047 0 
L 2419 0 
L 2419 1100 
L 313 1100 
L 313 1709 
L 2253 4666 
z
" transform="scale(0.015625)"/>
       </defs>
       <use xlink:href="#DejaVuSans-2212"/>
       <use xlink:href="#DejaVuSans-34" x="83.789062"/>
      </g>
     </g>
    </g>
    <g id="xtick_2">
     <g id="line2d_2">
      <g>
       <use xlink:href="#med7cc6eb41" x="136.882743" y="307.584" style="stroke: #000000; stroke-width: 0.8"/>
      </g>
     </g>
     <g id="text_2">
      <!-- −3 -->
      <g transform="translate(129.511649 322.182437) scale(0.1 -0.1)">
       <defs>
        <path id="DejaVuSans-33" d="M 2597 2516 
Q 3050 2419 3304 2112 
Q 3559 1806 3559 1356 
Q 3559 666 3084 287 
Q 2609 -91 1734 -91 
Q 1441 -91 1130 -33 
Q 819 25 488 141 
L 488 750 
Q 750 597 1062 519 
Q 1375 441 1716 441 
Q 2309 441 2620 675 
Q 2931 909 2931 1356 
Q 2931 1769 2642 2001 
Q 2353 2234 1838 2234 
L 1294 2234 
L 1294 2753 
L 1863 2753 
Q 2328 2753 2575 2939 
Q 2822 3125 2822 3475 
Q 2822 3834 2567 4026 
Q 2313 4219 1838 4219 
Q 1578 4219 1281 4162 
Q 984 4106 628 3988 
L 628 4550 
Q 988 4650 1302 4700 
Q 1616 4750 1894 4750 
Q 2613 4750 3031 4423 
Q 3450 4097 3450 3541 
Q 3450 3153 3228 2886 
Q 3006 2619 2597 2516 
z
" transform="scale(0.015625)"/>
       </defs>
       <use xlink:href="#DejaVuSans-2212"/>
       <use xlink:href="#DejaVuSans-33" x="83.789062"/>
      </g>
     </g>
    </g>
    <g id="xtick_3">
     <g id="line2d_3">
      <g>
       <use xlink:href="#med7cc6eb41" x="168.711326" y="307.584" style="stroke: #000000; stroke-width: 0.8"/>
      </g>
     </g>
     <g id="text_3">
      <!-- −2 -->
      <g transform="translate(161.340232 322.182437) scale(0.1 -0.1)">
       <defs>
        <path id="DejaVuSans-32" d="M 1228 531 
L 3431 531 
L 3431 0 
L 469 0 
L 469 531 
Q 828 903 1448 1529 
Q 2069 2156 2228 2338 
Q 2531 2678 2651 2914 
Q 2772 3150 2772 3378 
Q 2772 3750 2511 3984 
Q 2250 4219 1831 4219 
Q 1534 4219 1204 4116 
Q 875 4013 500 3803 
L 500 4441 
Q 881 4594 1212 4672 
Q 1544 4750 1819 4750 
Q 2544 4750 2975 4387 
Q 3406 4025 3406 3419 
Q 3406 3131 3298 2873 
Q 3191 2616 2906 2266 
Q 2828 2175 2409 1742 
Q 1991 1309 1228 531 
z
" transform="scale(0.015625)"/>
       </defs>
       <use xlink:href="#DejaVuSans-2212"/>
       <use xlink:href="#DejaVuSans-32" x="83.789062"/>
      </g>
     </g>
    </g>
    <g id="xtick_4">
     <g id="line2d_4">
      <g>
       <use xlink:href="#med7cc6eb41" x="200.539909" y="307.584" style="stroke: #000000; stroke-width: 0.8"/>
      </g>
     </g>
     <g id="text_4">
      <!-- −1 -->
      <g transform="translate(193.168815 322.182437) scale(0.1 -0.1)">
       <defs>
        <path id="DejaVuSans-31" d="M 794 531 
L 1825 531 
L 1825 4091 
L 703 3866 
L 703 4441 
L 1819 4666 
L 2450 4666 
L 2450 531 
L 3481 531 
L 3481 0 
L 794 0 
L 794 531 
z
" transform="scale(0.015625)"/>
       </defs>
       <use xlink:href="#DejaVuSans-2212"/>
       <use xlink:href="#DejaVuSans-31" x="83.789062"/>
      </g>
     </g>
    </g>
    <g id="xtick_5">
     <g id="line2d_5">
      <g>
       <use xlink:href="#med7cc6eb41" x="232.368492" y="307.584" style="stroke: #000000; stroke-width: 0.8"/>
      </g>
     </g>
     <g id="text_5">
      <!-- 0 -->
      <g transform="translate(229.187242 322.182437) scale(0.1 -0.1)">
       <defs>
        <path id="DejaVuSans-30" d="M 2034 4250 
Q 1547 4250 1301 3770 
Q 1056 3291 1056 2328 
Q 1056 1369 1301 889 
Q 1547 409 2034 409 
Q 2525 409 2770 889 
Q 3016 1369 3016 2328 
Q 3016 3291 2770 3770 
Q 2525 4250 2034 4250 
z
M 2034 4750 
Q 2819 4750 3233 4129 
Q 3647 3509 3647 2328 
Q 3647 1150 3233 529 
Q 2819 -91 2034 -91 
Q 1250 -91 836 529 
Q 422 1150 422 2328 
Q 422 3509 836 4129 
Q 1250 4750 2034 4750 
z
" transform="scale(0.015625)"/>
       </defs>
       <use xlink:href="#DejaVuSans-30"/>
      </g>
     </g>
    </g>
    <g id="xtick_6">
     <g id="line2d_6">
      <g>
       <use xlink:href="#med7cc6eb41" x="264.197076" y="307.584" style="stroke: #000000; stroke-width: 0.8"/>
      </g>
     </g>
     <g id="text_6">
      <!-- 1 -->
      <g transform="translate(261.015826 322.182437) scale(0.1 -0.1)">
       <use xlink:href="#DejaVuSans-31"/>
      </g>
     </g>
    </g>
    <g id="xtick_7">
     <g id="line2d_7">
      <g>
       <use xlink:href="#med7cc6eb41" x="296.025659" y="307.584" style="stroke: #000000; stroke-width: 0.8"/>
      </g>
     </g>
     <g id="text_7">
      <!-- 2 -->
      <g transform="translate(292.844409 322.182437) scale(0.1 -0.1)">
       <use xlink:href="#DejaVuSans-32"/>
      </g>
     </g>
    </g>
    <g id="xtick_8">
     <g id="line2d_8">
      <g>
       <use xlink:href="#med7cc6eb41" x="327.854242" y="307.584" style="stroke: #000000; stroke-width: 0.8"/>
      </g>
     </g>
     <g id="text_8">
      <!-- 3 -->
      <g transform="translate(324.672992 322.182437) scale(0.1 -0.1)">
       <use xlink:href="#DejaVuSans-33"/>
      </g>
     </g>
    </g>
    <g id="xtick_9">
     <g id="line2d_9">
      <g>
       <use xlink:href="#med7cc6eb41" x="359.682825" y="307.584" style="stroke: #000000; stroke-width: 0.8"/>
      </g>
     </g>
     <g id="text_9">
      <!-- 4 -->
      <g transform="translate(356.501575 322.182437) scale(0.1 -0.1)">
       <use xlink:href="#DejaVuSans-34"/>
      </g>
     </g>
    </g>
    <g id="text_10">
     <!-- X (AU) -->
     <g transform="translate(220.164688 335.860562) scale(0.1 -0.1)">
      <defs>
       <path id="DejaVuSans-58" d="M 403 4666 
L 1081 4666 
L 2241 2931 
L 3406 4666 
L 4084 4666 
L 2584 2425 
L 4184 0 
L 3506 0 
L 2194 1984 
L 872 0 
L 191 0 
L 1856 2491 
L 403 4666 
z
" transform="scale(0.015625)"/>
       <path id="DejaVuSans-20" transform="scale(0.015625)"/>
       <path id="DejaVuSans-28" d="M 1984 4856 
Q 1566 4138 1362 3434 
Q 1159 2731 1159 2009 
Q 1159 1288 1364 580 
Q 1569 -128 1984 -844 
L 1484 -844 
Q 1016 -109 783 600 
Q 550 1309 550 2009 
Q 550 2706 781 3412 
Q 1013 4119 1484 4856 
L 1984 4856 
z
" transform="scale(0.015625)"/>
       <path id="DejaVuSans-41" d="M 2188 4044 
L 1331 1722 
L 3047 1722 
L 2188 4044 
z
M 1831 4666 
L 2547 4666 
L 4325 0 
L 3669 0 
L 3244 1197 
L 1141 1197 
L 716 0 
L 50 0 
L 1831 4666 
z
" transform="scale(0.015625)"/>
       <path id="DejaVuSans-55" d="M 556 4666 
L 1191 4666 
L 1191 1831 
Q 1191 1081 1462 751 
Q 1734 422 2344 422 
Q 2950 422 3222 751 
Q 3494 1081 3494 1831 
L 3494 4666 
L 4128 4666 
L 4128 1753 
Q 4128 841 3676 375 
Q 3225 -91 2344 -91 
Q 1459 -91 1007 375 
Q 556 841 556 1753 
L 556 4666 
z
" transform="scale(0.015625)"/>
       <path id="DejaVuSans-29" d="M 513 4856 
L 1013 4856 
Q 1481 4119 1714 3412 
Q 1947 2706 1947 2009 
Q 1947 1309 1714 600 
Q 1481 -109 1013 -844 
L 513 -844 
Q 928 -128 1133 580 
Q 1338 1288 1338 2009 
Q 1338 2731 1133 3434 
Q 928 4138 513 4856 
z
" transform="scale(0.015625)"/>
      </defs>
      <use xlink:href="#DejaVuSans-58"/>
      <use xlink:href="#DejaVuSans-20" x="68.505859"/>
      <use xlink:href="#DejaVuSans-28" x="100.292969"/>
      <use xlink:href="#DejaVuSans-41" x="139.306641"/>
      <use xlink:href="#DejaVuSans-55" x="207.714844"/>
      <use xlink:href="#DejaVuSans-29" x="280.908203"/>
     </g>
    </g>
   </g>
   <g id="matplotlib.axis_2">
    <g id="ytick_1">
     <g id="line2d_10">
      <defs>
       <path id="m5e6ac35ee6" d="M 0 0 
L -3.5 0 
" style="stroke: #000000; stroke-width: 0.8"/>
      </defs>
      <g>
       <use xlink:href="#m5e6ac35ee6" x="100.718872" y="276.679697" style="stroke: #000000; stroke-width: 0.8"/>
      </g>
     </g>
     <g id="text_11">
      <!-- −3 -->
      <g transform="translate(78.976684 280.478916) scale(0.1 -0.1)">
       <use xlink:href="#DejaVuSans-2212"/>
       <use xlink:href="#DejaVuSans-33" x="83.789062"/>
      </g>
     </g>
    </g>
    <g id="ytick_2">
     <g id="line2d_11">
      <g>
       <use xlink:href="#m5e6ac35ee6" x="100.718872" y="244.851114" style="stroke: #000000; stroke-width: 0.8"/>
      </g>
     </g>
     <g id="text_12">
      <!-- −2 -->
      <g transform="translate(78.976684 248.650333) scale(0.1 -0.1)">
       <use xlink:href="#DejaVuSans-2212"/>
       <use xlink:href="#DejaVuSans-32" x="83.789062"/>
      </g>
     </g>
    </g>
    <g id="ytick_3">
     <g id="line2d_12">
      <g>
       <use xlink:href="#m5e6ac35ee6" x="100.718872" y="213.022531" style="stroke: #000000; stroke-width: 0.8"/>
      </g>
     </g>
     <g id="text_13">
      <!-- −1 -->
      <g transform="translate(78.976684 216.82175) scale(0.1 -0.1)">
       <use xlink:href="#DejaVuSans-2212"/>
       <use xlink:href="#DejaVuSans-31" x="83.789062"/>
      </g>
     </g>
    </g>
    <g id="ytick_4">
     <g id="line2d_13">
      <g>
       <use xlink:href="#m5e6ac35ee6" x="100.718872" y="181.193948" style="stroke: #000000; stroke-width: 0.8"/>
      </g>
     </g>
     <g id="text_14">
      <!-- 0 -->
      <g transform="translate(87.356372 184.993166) scale(0.1 -0.1)">
       <use xlink:href="#DejaVuSans-30"/>
      </g>
     </g>
    </g>
    <g id="ytick_5">
     <g id="line2d_14">
      <g>
       <use xlink:href="#m5e6ac35ee6" x="100.718872" y="149.365364" style="stroke: #000000; stroke-width: 0.8"/>
      </g>
     </g>
     <g id="text_15">
      <!-- 1 -->
      <g transform="translate(87.356372 153.164583) scale(0.1 -0.1)">
       <use xlink:href="#DejaVuSans-31"/>
      </g>
     </g>
    </g>
    <g id="ytick_6">
     <g id="line2d_15">
      <g>
       <use xlink:href="#m5e6ac35ee6" x="100.718872" y="117.536781" style="stroke: #000000; stroke-width: 0.8"/>
      </g>
     </g>
     <g id="text_16">
      <!-- 2 -->
      <g transform="translate(87.356372 121.336) scale(0.1 -0.1)">
       <use xlink:href="#DejaVuSans-32"/>
      </g>
     </g>
    </g>
    <g id="ytick_7">
     <g id="line2d_16">
      <g>
       <use xlink:href="#m5e6ac35ee6" x="100.718872" y="85.708198" style="stroke: #000000; stroke-width: 0.8"/>
      </g>
     </g>
     <g id="text_17">
      <!-- 3 -->
      <g transform="translate(87.356372 89.507417) scale(0.1 -0.1)">
       <use xlink:href="#DejaVuSans-33"/>
      </g>
     </g>
    </g>
    <g id="ytick_8">
     <g id="line2d_17">
      <g>
       <use xlink:href="#m5e6ac35ee6" x="100.718872" y="53.879615" style="stroke: #000000; stroke-width: 0.8"/>
      </g>
     </g>
     <g id="text_18">
      <!-- 4 -->
      <g transform="translate(87.356372 57.678833) scale(0.1 -0.1)">
       <use xlink:href="#DejaVuSans-34"/>
      </g>
     </g>
    </g>
    <g id="text_19">
     <!-- Y (AU) -->
     <g transform="translate(72.896997 190.152219) rotate(-90) scale(0.1 -0.1)">
      <defs>
       <path id="DejaVuSans-59" d="M -13 4666 
L 666 4666 
L 1959 2747 
L 3244 4666 
L 3922 4666 
L 2272 2222 
L 2272 0 
L 1638 0 
L 1638 2222 
L -13 4666 
z
" transform="scale(0.015625)"/>
      </defs>
      <use xlink:href="#DejaVuSans-59"/>
      <use xlink:href="#DejaVuSans-20" x="61.083984"/>
      <use xlink:href="#DejaVuSans-28" x="92.871094"/>
      <use xlink:href="#DejaVuSans-41" x="131.884766"/>
      <use xlink:href="#DejaVuSans-55" x="200.292969"/>
      <use xlink:href="#DejaVuSans-29" x="273.486328"/>
     </g>
    </g>
   </g>
   <g id="line2d_18">
    <path d="M 264.197076 85.708198 
L 261.253594 98.697262 
L 258.563037 109.584102 
L 255.980498 119.113854 
L 252.017352 132.757581 
L 247.757895 147.603627 
L 245.853317 155.013074 
L 244.573157 160.851563 
L 243.739279 165.681868 
L 243.257803 169.740253 
L 243.048074 173.413454 
L 243.083305 176.580741 
L 243.342952 179.596379 
L 243.801295 182.317532 
L 244.483108 184.960783 
L 245.307201 187.297543 
L 246.331815 189.568786 
L 247.599808 191.838011 
L 249.084036 194.035746 
L 250.829096 196.216474 
L 252.836739 198.365367 
L 255.064169 200.436873 
L 257.663673 202.557563 
L 260.667202 204.717485 
L 264.130557 206.922237 
L 268.081934 209.157 
L 272.330822 211.304366 
L 277.220848 213.519196 
L 282.567068 215.686625 
L 288.00796 217.653697 
L 292.919455 219.203117 
L 297.136421 220.306148 
L 300.572249 220.987147 
L 303.364542 221.336128 
L 305.726071 221.425637 
L 307.703268 221.287323 
L 309.22989 220.979238 
L 310.478888 220.522339 
L 311.446405 219.961219 
L 312.278821 219.219518 
L 312.8402 218.449807 
L 313.256375 217.5369 
L 313.507975 216.485167 
L 313.584071 215.31029 
L 313.445151 213.770331 
L 313.069841 212.116506 
L 312.364614 210.086781 
L 311.26244 207.697064 
L 309.912884 205.294621 
L 308.181923 202.639607 
L 305.874568 199.535837 
L 303.246688 196.394164 
L 300.395448 193.325685 
L 297.220176 190.239361 
L 294.060427 187.469606 
L 290.845854 184.944376 
L 287.86342 182.87219 
L 285.048122 181.179005 
L 282.523303 179.914015 
L 280.343643 179.058844 
L 278.445494 178.543607 
L 276.826707 178.329559 
L 275.479006 178.371129 
L 274.386972 178.615946 
L 273.471649 179.040503 
L 272.723065 179.625088 
L 272.101002 180.396176 
L 271.615677 181.366197 
L 271.277203 182.564252 
L 271.107959 184.000845 
L 271.131799 185.746491 
L 271.38612 187.817467 
L 271.917842 190.281782 
L 272.757085 193.116107 
L 273.981386 196.452731 
L 275.64778 200.322668 
L 277.849735 204.83684 
L 280.575279 209.909724 
L 284.549249 216.794501 
L 288.43901 223.607105 
L 289.341583 225.621483 
L 289.546089 226.546666 
L 289.452235 226.987631 
L 289.207387 227.18079 
L 288.760602 227.219282 
L 287.970485 227.029619 
L 286.580616 226.43558 
L 284.334216 225.216428 
L 281.375419 223.353413 
L 278.075873 221.012985 
L 274.76351 218.401342 
L 271.516837 215.568308 
L 268.552886 212.70581 
L 265.805482 209.757817 
L 263.34714 206.801011 
L 261.215046 203.892841 
L 259.431581 201.092926 
L 257.90725 198.271143 
L 256.767231 195.705475 
L 255.904861 193.249582 
L 255.275113 190.781476 
L 254.90997 188.440975 
L 254.785599 186.163717 
L 254.889411 184.039188 
L 255.201422 182.012001 
L 255.728412 180.016591 
L 256.449345 178.120764 
L 257.377218 176.275993 
L 258.588444 174.381201 
L 259.973589 172.625157 
L 261.644632 170.871588 
L 263.599887 169.158342 
L 265.796563 167.538702 
L 268.193764 166.041228 
L 270.969093 164.574863 
L 273.966362 163.243939 
L 277.204494 162.044038 
L 280.705018 160.978112 
L 284.530517 160.047958 
L 288.476572 159.314403 
L 292.772782 158.752022 
L 297.028767 158.422443 
L 301.433863 158.312968 
L 305.782603 158.438687 
L 309.976048 158.79267 
L 313.88008 159.350491 
L 317.419861 160.079174 
L 320.626063 160.966556 
L 323.367758 161.953534 
L 325.62384 162.995101 
L 327.432588 164.064541 
L 328.837111 165.140512 
L 329.876872 166.195616 
L 330.624385 167.24069 
L 331.124512 168.281421 
L 331.409295 169.329914 
L 331.495281 170.439613 
L 331.375353 171.572258 
L 331.00764 172.854255 
L 330.425602 174.110857 
L 329.54572 175.495881 
L 328.32484 176.995295 
L 326.74065 178.579882 
L 324.800566 180.207922 
L 322.542804 181.831772 
L 319.651391 183.625253 
L 316.530971 185.3007 
L 312.878434 186.999762 
L 309.199495 188.477486 
L 305.203671 189.852719 
L 301.038135 191.053431 
L 296.87461 192.025012 
L 292.887991 192.738981 
L 288.988231 193.220866 
L 285.220551 193.461789 
L 281.829379 193.461336 
L 278.655974 193.237345 
L 275.879716 192.820898 
L 273.434233 192.233828 
L 271.320268 191.503711 
L 269.539057 190.665527 
L 267.972024 189.681776 
L 266.677181 188.598756 
L 265.659595 187.459618 
L 264.87654 186.263732 
L 264.283012 184.957948 
L 263.889162 183.545141 
L 263.704459 182.043072 
L 263.732131 180.43773 
L 263.979773 178.736477 
L 264.470122 176.891741 
L 265.236492 174.883191 
L 266.315615 172.700731 
L 267.745531 170.339693 
L 269.490435 167.895926 
L 271.61727 165.303731 
L 274.120687 162.603912 
L 276.970532 159.849261 
L 280.250543 156.984988 
L 283.908183 154.086603 
L 288.351035 150.871465 
L 289.215224 150.161833 
L 289.167294 150.152385 
L 288.716955 150.302896 
L 287.079583 151.109552 
L 284.326419 152.717303 
L 281.035331 154.906939 
L 277.851531 157.288234 
L 274.81254 159.834009 
L 272.064847 162.423204 
L 269.667075 164.985435 
L 267.638842 167.474277 
L 265.98497 169.846876 
L 264.640097 172.169505 
L 263.646085 174.331073 
L 262.961606 176.339893 
L 262.548607 178.220147 
L 262.381603 180.008056 
L 262.449742 181.689646 
L 262.731454 183.235089 
L 263.239358 184.74035 
L 263.927838 186.094201 
L 264.861545 187.424168 
L 265.985904 188.635572 
L 267.386095 189.803542 
L 269.013941 190.863215 
L 270.893707 191.819626 
L 273.033653 192.661543 
L 275.488148 193.388176 
L 278.207182 193.964546 
L 281.256964 194.384598 
L 284.630029 194.621175 
L 288.342874 194.648102 
L 292.117983 194.456342 
L 296.074756 194.040441 
L 300.322663 193.363461 
L 304.366159 192.501741 
L 308.343682 191.442473 
L 312.494414 190.097014 
L 316.314365 188.613763 
L 319.682754 187.072667 
L 322.865233 185.361297 
L 325.430565 183.738085 
L 327.653426 182.076793 
L 329.470855 180.444953 
L 330.868125 178.904734 
L 331.982032 177.331009 
L 332.699841 175.943023 
L 333.148402 174.618298 
L 333.358152 173.287393 
L 333.325278 172.039377 
L 333.064677 170.813996 
L 332.582151 169.626042 
L 331.845502 168.42293 
L 330.842365 167.225723 
L 329.556234 166.0439 
L 327.943738 164.869205 
L 325.995762 163.727216 
L 323.700364 162.639546 
L 320.996071 161.610993 
L 317.881036 160.67862 
L 314.582185 159.922433 
L 310.885761 159.307893 
L 307.1175 158.900439 
L 303.224128 158.689201 
L 299.076825 158.684726 
L 294.800123 158.912955 
L 290.794981 159.344254 
L 286.800526 159.994999 
L 282.920415 160.856968 
L 279.427037 161.851266 
L 276.004776 163.058907 
L 272.882671 164.403346 
L 270.036604 165.880985 
L 267.615265 167.38211 
L 265.423847 168.999006 
L 263.49158 170.707836 
L 261.862441 172.450551 
L 260.548727 174.167151 
L 259.447507 175.96221 
L 258.596972 177.756386 
L 257.945177 179.653672 
L 257.532055 181.526039 
L 257.329999 183.440662 
L 257.345873 185.484381 
L 257.582162 187.488286 
L 258.056668 189.595056 
L 258.778351 191.76048 
L 259.771946 194.006307 
L 261.049538 196.312975 
L 262.586694 198.61736 
L 264.455398 201.000037 
L 266.635994 203.399856 
L 269.103131 205.76973 
L 271.829292 208.071617 
L 274.77469 210.263401 
L 277.865851 212.285592 
L 280.949113 214.044226 
L 284.047529 215.550212 
L 286.75488 216.619266 
L 288.912397 217.241693 
L 290.416069 217.459974 
L 291.286398 217.384427 
L 291.720143 217.150191 
L 291.91376 216.79812 
L 291.913852 216.291748 
L 291.655315 215.499679 
L 291.022516 214.328293 
L 289.709923 212.407208 
L 287.086827 209.012439 
L 278.995458 198.690242 
L 275.9795 194.426493 
L 273.6243 190.714383 
L 271.881185 187.559481 
L 270.626483 184.845758 
L 269.772705 182.483606 
L 269.274233 180.464358 
L 269.076858 178.76364 
L 269.127868 177.334415 
L 269.382503 176.151677 
L 269.823023 175.144328 
L 270.423891 174.316493 
L 271.189737 173.634471 
L 272.159333 173.076509 
L 273.344355 172.661965 
L 274.766588 172.407336 
L 276.458295 172.333892 
L 278.495143 172.475645 
L 280.894749 172.875938 
L 283.667484 173.57414 
L 286.750543 174.582318 
L 290.200493 175.94699 
L 293.840385 177.619867 
L 297.72513 179.645913 
L 301.732898 181.989839 
L 305.723705 184.593418 
L 309.272112 187.167414 
L 312.51295 189.785888 
L 315.337892 192.35648 
L 317.66873 194.790168 
L 319.468116 197.010096 
L 320.745244 198.959267 
L 321.554065 200.605456 
L 321.983163 201.941995 
L 322.14765 203.183044 
L 322.077098 204.127693 
L 321.820868 204.981481 
L 321.390559 205.735513 
L 320.673687 206.503023 
L 319.780891 207.124907 
L 318.577023 207.684743 
L 317.059668 208.140983 
L 315.060129 208.493832 
L 312.650858 208.686945 
L 309.635652 208.699715 
L 305.852036 208.479021 
L 301.260787 207.975436 
L 295.7359 207.1361 
L 289.782462 206.008815 
L 284.014246 204.690408 
L 278.919071 203.310025 
L 274.16662 201.800546 
L 269.769392 200.165856 
L 265.93562 198.502668 
L 262.474552 196.753782 
L 259.482955 194.992839 
L 256.87527 193.205467 
L 254.60766 191.391775 
L 252.530366 189.435888 
L 250.845554 187.555818 
L 249.295713 185.48386 
L 247.987933 183.34363 
L 246.944203 181.217431 
L 246.046005 178.865665 
L 245.365162 176.451302 
L 244.876474 173.922182 
L 244.559752 171.07184 
L 244.451963 168.087713 
L 244.556403 164.754653 
L 244.88938 161.142819 
L 245.500263 156.985985 
L 246.444087 152.183247 
L 247.760224 146.692126 
L 249.547455 140.21448 
L 252.169912 131.630328 
L 263.77904 95.399849 
L 264.521581 93.783933 
L 264.853638 93.467687 
L 265.00044 93.543513 
L 265.133946 93.913442 
L 265.229499 94.933917 
L 265.192447 97.376049 
L 264.87433 102.049776 
L 264.077281 110.275825 
L 262.616806 122.888528 
L 260.885104 135.981568 
L 259.290113 146.448879 
L 257.945891 153.888875 
L 256.778314 159.169016 
L 255.73518 162.903873 
L 254.790072 165.510203 
L 253.903735 167.342391 
L 253.062464 168.602438 
L 252.252038 169.44023 
L 251.443557 169.967136 
L 250.626046 170.23893 
L 249.748609 170.290336 
L 248.792739 170.116527 
L 247.70928 169.689368 
L 246.392015 168.91738 
L 244.779748 167.698966 
L 242.672411 165.810266 
L 239.300537 162.449501 
L 233.924428 157.108341 
L 230.914758 154.447515 
L 228.33533 152.463029 
L 226.067059 150.984871 
L 223.944283 149.854739 
L 221.95617 149.040441 
L 220.083128 148.510764 
L 218.318794 148.24496 
L 216.682572 148.222544 
L 215.137959 148.420297 
L 213.724829 148.818302 
L 212.445093 149.40728 
L 211.359413 150.140963 
L 210.405728 151.049927 
L 209.621091 152.106749 
L 209.011324 153.310915 
L 208.606172 154.602464 
L 208.400241 156.023818 
L 208.415941 157.457969 
L 208.656548 158.938747 
L 209.102746 160.341491 
L 209.775228 161.717885 
L 210.629422 162.956481 
L 211.610752 164.005928 
L 212.767042 164.917407 
L 214.034712 165.627179 
L 215.337554 166.109378 
L 216.747374 166.393783 
L 218.145028 166.458999 
L 219.659018 166.303358 
L 221.14495 165.929502 
L 222.673552 165.316438 
L 224.193231 164.469942 
L 225.706843 163.376827 
L 227.206983 162.023144 
L 228.643096 160.441304 
L 230.042649 158.583286 
L 231.437407 156.349255 
L 232.681754 153.938104 
L 233.829996 151.227672 
L 234.850238 148.228626 
L 235.656591 145.194796 
L 236.301683 141.932158 
L 236.758876 138.456749 
L 236.989595 135.080548 
L 237.012881 131.565444 
L 236.820854 128.123831 
L 236.421858 124.766168 
L 235.837114 121.578119 
L 234.990556 118.247208 
L 233.982324 115.216623 
L 232.880162 112.562711 
L 231.557329 109.961032 
L 230.235319 107.810267 
L 228.73168 105.773806 
L 227.047816 103.902466 
L 225.515531 102.510353 
L 223.881543 101.306898 
L 222.169531 100.324089 
L 220.412459 99.587292 
L 218.650589 99.109923 
L 216.926806 98.889459 
L 215.279368 98.907006 
L 213.71625 99.135881 
L 212.233978 99.554509 
L 210.570535 100.279049 
L 209.044392 101.211815 
L 207.66495 102.315414 
L 206.247878 103.768733 
L 205.038664 105.345714 
L 203.902874 107.231705 
L 203.011123 109.142519 
L 202.266909 111.256392 
L 201.712163 113.500039 
L 201.36679 115.792403 
L 201.22684 118.233531 
L 201.30761 120.59204 
L 201.612617 123.008011 
L 202.138766 125.365216 
L 202.838529 127.524179 
L 203.751708 129.630178 
L 204.802084 131.517512 
L 206.047087 133.298469 
L 207.453165 134.905452 
L 208.951375 136.272317 
L 210.482575 137.381793 
L 212.152152 138.319552 
L 213.875019 139.032724 
L 215.592359 139.515761 
L 217.367155 139.796515 
L 219.292879 139.865369 
L 221.122093 139.711808 
L 222.965035 139.343845 
L 224.819641 138.754491 
L 226.736131 137.905149 
L 228.609549 136.821914 
L 230.418185 135.513596 
L 232.115363 134.017549 
L 233.774343 132.256295 
L 235.339149 130.256759 
L 236.763173 128.057899 
L 238.01538 125.696435 
L 239.075209 123.20338 
L 239.926271 120.607163 
L 240.553172 117.936479 
L 240.923005 115.396016 
L 241.069625 112.796593 
L 240.982243 110.376556 
L 240.676646 108.080386 
L 240.169726 105.964143 
L 239.498808 104.093076 
L 238.718186 102.509952 
L 237.739688 101.02656 
L 236.734251 99.87606 
L 235.570526 98.877892 
L 234.248766 98.073531 
L 233.030514 97.582422 
L 231.713453 97.280965 
L 230.307668 97.192977 
L 228.830757 97.33949 
L 227.309171 97.733914 
L 225.773334 98.378688 
L 224.253947 99.265054 
L 222.779126 100.374757 
L 221.37271 101.68257 
L 219.801275 103.471805 
L 218.377223 105.450058 
L 217.111656 107.566823 
L 215.838952 110.152144 
L 214.782052 112.801817 
L 213.825093 115.838474 
L 213.113634 118.819592 
L 212.571561 122.042568 
L 212.23889 125.402117 
L 212.13259 128.782953 
L 212.25247 132.172824 
L 212.586517 135.446821 
L 213.116308 138.583289 
L 213.885511 141.78916 
L 214.863633 144.86697 
L 215.954683 147.595549 
L 217.219299 150.185993 
L 218.63725 152.594303 
L 220.166049 154.764041 
L 221.876552 156.790238 
L 223.576227 158.466965 
L 225.356216 159.923285 
L 227.205111 161.156118 
L 229.071462 162.144326 
L 231.019462 162.926567 
L 232.89763 163.456906 
L 234.884007 163.791066 
L 236.890244 163.899502 
L 238.850882 163.785472 
L 240.86973 163.43781 
L 242.797583 162.878809 
L 244.643224 162.120292 
L 246.492916 161.114727 
L 248.162141 159.958565 
L 249.676665 158.650756 
L 251.040861 157.176227 
L 252.103979 155.706051 
L 252.85132 154.315667 
L 253.285914 153.053293 
L 253.403073 152.083458 
L 253.28259 151.381072 
L 252.990779 150.926687 
L 252.562797 150.675975 
L 251.991946 150.612437 
L 251.242299 150.761088 
L 250.233344 151.194699 
L 248.827182 152.053363 
L 246.830736 153.54372 
L 242.852685 156.85445 
L 238.297638 160.546386 
L 235.314778 162.686957 
L 232.621705 164.354011 
L 230.150011 165.62845 
L 227.84416 166.576907 
L 225.619954 167.258069 
L 223.464336 167.688357 
L 221.409583 167.878586 
L 219.354997 167.844883 
L 217.346066 167.585602 
L 215.339227 167.091864 
L 213.390003 166.374861 
L 211.509302 165.446793 
L 209.594052 164.245118 
L 207.722115 162.798224 
L 205.921058 161.125375 
L 204.135028 159.161188 
L 202.426808 156.957019 
L 200.724306 154.388268 
L 199.150149 151.613843 
L 197.675254 148.578339 
L 196.245993 145.108768 
L 194.981885 141.436457 
L 193.907132 137.643519 
L 192.972178 133.505549 
L 192.264887 129.368079 
L 191.750148 124.969925 
L 191.482091 120.712384 
L 191.4438 116.684911 
L 191.613053 112.912141 
L 191.965732 109.451163 
L 192.536771 106.026901 
L 193.243924 103.110097 
L 194.026046 100.722687 
L 194.966743 98.548722 
L 195.899951 96.904421 
L 196.947637 95.506178 
L 197.903929 94.5577 
L 198.929788 93.828706 
L 200.016591 93.336714 
L 201.153316 93.093506 
L 202.326653 93.103526 
L 203.521037 93.362455 
L 204.718667 93.855884 
L 205.904756 94.5617 
L 207.301073 95.655734 
L 208.876787 97.217401 
L 210.380673 99.020039 
L 211.998955 101.291358 
L 213.85944 104.319372 
L 215.690928 107.730104 
L 217.69934 111.956507 
L 219.782213 116.872621 
L 221.999959 122.695855 
L 224.354642 129.529656 
L 226.685418 136.980484 
L 228.455309 143.328187 
L 229.689627 148.513218 
L 230.552853 153.049707 
L 231.094156 157.065723 
L 231.35498 160.705669 
L 231.362288 163.93983 
L 231.159219 166.820177 
L 230.738669 169.663205 
L 230.112368 172.382321 
L 229.263909 175.078054 
L 228.124771 177.917319 
L 226.689903 180.866494 
L 224.89211 184.045941 
L 222.569987 187.703618 
L 219.146899 192.642748 
L 213.171999 200.791878 
L 201.330562 216.925646 
L 193.692926 227.747446 
L 185.779959 239.358995 
L 176.188996 253.844631 
L 166.439339 268.962651 
L 158.085594 282.309503 
L 151.320987 293.523985 
L 145.961474 302.826578 
L 141.778412 310.50965 
L 138.852032 316.328053 
L 137.085764 320.30625 
L 136.178175 322.859995 
L 135.863374 324.337405 
L 135.896382 325.128348 
L 136.102637 325.47053 
L 136.417273 325.577342 
L 136.888884 325.486507 
L 137.659083 325.085298 
L 138.848409 324.191342 
L 140.651029 322.53234 
L 143.190547 319.871232 
L 146.627683 315.932521 
L 151.271569 310.251137 
L 157.168106 302.668161 
L 164.330991 293.079866 
L 171.960008 282.498495 
L 180.386605 270.432165 
L 189.992639 256.2762 
L 200.362633 240.593037 
L 211.20114 223.797568 
L 219.298738 210.871899 
L 223.711398 203.443882 
L 226.795145 197.840553 
L 229.211904 193.009559 
L 231.269976 188.411381 
L 233.379077 183.128891 
L 238.249117 170.033855 
L 244.366323 153.168008 
L 250.574612 135.323778 
L 262.270128 100.859307 
L 280.221746 47.265369 
L 296.27522 -1 
L 296.27522 -1 
" clip-path="url(#p5f91b4a9ee)" style="fill: none; stroke: #1f77b4; stroke-width: 1.5; stroke-linecap: square"/>
   </g>
   <g id="line2d_19">
    <defs>
     <path id="mf8814d7a58" d="M 0 3 
C 0.795609 3 1.55874 2.683901 2.12132 2.12132 
C 2.683901 1.55874 3 0.795609 3 0 
C 3 -0.795609 2.683901 -1.55874 2.12132 -2.12132 
C 1.55874 -2.683901 0.795609 -3 0 -3 
C -0.795609 -3 -1.55874 -2.683901 -2.12132 -2.12132 
C -2.683901 -1.55874 -3 -0.795609 -3 0 
C -3 0.795609 -2.683901 1.55874 -2.12132 2.12132 
C -1.55874 2.683901 -0.795609 3 0 3 
z
" style="stroke: #1f77b4"/>
    </defs>
    <g clip-path="url(#p5f91b4a9ee)"/>
   </g>
   <g id="line2d_20">
    <path d="M 168.711326 213.022531 
L 195.850595 208.982668 
L 219.11041 205.512112 
L 222.29646 204.808613 
L 223.627058 204.315412 
L 224.092715 203.939441 
L 224.149549 203.642392 
L 223.965773 203.343071 
L 223.430421 202.954534 
L 222.252387 202.407421 
L 219.843145 201.566085 
L 213.873185 199.779478 
L 206.745393 197.558627 
L 202.291155 195.951443 
L 198.557531 194.374295 
L 195.580208 192.884783 
L 193.128716 191.421632 
L 191.139599 189.989726 
L 189.542365 188.582565 
L 188.283064 187.193997 
L 187.275317 185.740068 
L 186.58684 184.342142 
L 186.170527 182.991672 
L 185.993292 181.666314 
L 186.039828 180.368222 
L 186.311866 179.044926 
L 186.822104 177.701118 
L 187.556127 176.385015 
L 188.559073 175.040599 
L 189.803665 173.732848 
L 191.319005 172.449481 
L 193.141588 171.191492 
L 195.273467 169.992176 
L 197.647072 168.912393 
L 200.296459 167.960912 
L 203.047961 167.219352 
L 205.76359 166.724626 
L 208.231638 166.495868 
L 210.431516 166.509372 
L 212.242544 166.736246 
L 213.640484 167.128109 
L 214.639765 167.6304 
L 215.289024 168.191096 
L 215.670949 168.80533 
L 215.819405 169.460646 
L 215.751386 170.180917 
L 215.449398 170.980422 
L 214.861815 171.892208 
L 213.922598 172.926494 
L 212.574265 174.074182 
L 210.724018 175.348183 
L 208.35858 176.702982 
L 205.338622 178.165074 
L 201.756785 179.645447 
L 197.517659 181.148733 
L 192.690725 182.615023 
L 187.431739 183.975013 
L 181.98562 185.159665 
L 176.272514 186.176959 
L 170.501427 186.971443 
L 165.328629 187.468884 
L 160.58619 187.715991 
L 156.457519 187.723493 
L 153.105071 187.530674 
L 150.357188 187.165342 
L 148.333785 186.684431 
L 146.969913 186.147307 
L 146.141612 185.60263 
L 145.713142 185.083031 
L 145.560754 184.561826 
L 145.64826 184.026416 
L 145.981807 183.457712 
L 146.63521 182.814914 
L 147.715639 182.087701 
L 149.332673 181.283879 
L 151.619864 180.406968 
L 154.833672 179.427297 
L 159.16717 178.346624 
L 165.21762 177.07639 
L 174.230993 175.428935 
L 200.520449 170.752014 
L 206.600366 169.394208 
L 210.587559 168.293317 
L 212.992825 167.416927 
L 214.16485 166.780199 
L 214.561109 166.34811 
L 214.558346 166.067691 
L 214.32057 165.838833 
L 213.725315 165.612239 
L 212.514865 165.415067 
L 210.425798 165.316206 
L 207.21177 165.40022 
L 202.989256 165.737819 
L 198.106399 166.349035 
L 193.09637 167.192507 
L 188.35715 168.203542 
L 184.045747 169.33814 
L 180.25078 170.555714 
L 177.013359 171.816414 
L 174.29581 173.102311 
L 172.017005 174.425029 
L 170.23162 175.715071 
L 168.85031 176.983605 
L 167.830961 178.212952 
L 167.094735 179.443824 
L 166.634832 180.634996 
L 166.420064 181.777621 
L 166.428123 182.945522 
L 166.648399 184.046234 
L 167.081873 185.150156 
L 167.741685 186.260392 
L 168.683249 187.416674 
L 169.903263 188.567612 
L 171.523601 189.77066 
L 173.493523 190.9323 
L 175.681163 191.965268 
L 178.18854 192.90703 
L 180.886631 193.691557 
L 183.818755 194.314311 
L 186.749826 194.715968 
L 189.730809 194.898637 
L 192.575409 194.844109 
L 195.115147 194.575802 
L 197.38449 194.116729 
L 199.353217 193.492938 
L 200.977067 192.749615 
L 202.291418 191.909069 
L 203.319239 190.992205 
L 204.074291 190.02931 
L 204.592947 189.019776 
L 204.892481 187.972921 
L 204.987092 186.832099 
L 204.858852 185.621982 
L 204.491959 184.33142 
L 203.863711 182.957022 
L 202.963546 181.521009 
L 201.715572 179.960007 
L 200.163746 178.371495 
L 198.1775 176.664527 
L 195.818495 174.937054 
L 193.084585 173.211426 
L 189.982614 171.514523 
L 186.537174 169.88075 
L 182.796856 168.351537 
L 178.83799 166.972871 
L 174.764941 165.791162 
L 170.705701 164.847723 
L 166.770907 164.168062 
L 163.387456 163.792745 
L 160.092779 163.655302 
L 157.30464 163.774859 
L 155.066387 164.105008 
L 153.391765 164.580186 
L 152.233509 165.123905 
L 151.392964 165.762955 
L 150.92594 166.362833 
L 150.653518 167.093917 
L 150.631792 167.829676 
L 150.845704 168.645138 
L 151.357322 169.59157 
L 152.163409 170.590037 
L 153.387414 171.733618 
L 155.105418 173.011477 
L 157.358216 174.394568 
L 160.238296 175.891465 
L 163.702482 177.438535 
L 167.906724 179.070769 
L 173.068435 180.832796 
L 179.427843 182.761068 
L 187.344967 184.91866 
L 198.250427 187.635827 
L 212.757183 191.2522 
L 213.433377 191.544097 
L 213.386282 191.56815 
L 212.878496 191.55407 
L 210.527358 191.224792 
L 204.126253 190.081808 
L 195.012777 188.23926 
L 186.571087 186.318457 
L 179.420695 184.475138 
L 173.349007 182.687364 
L 168.275521 180.964222 
L 164.14967 179.331808 
L 160.808092 177.775444 
L 158.099576 176.27705 
L 156.019073 174.88569 
L 154.503499 173.624733 
L 153.417048 172.445013 
L 152.754175 171.428389 
L 152.396862 170.52658 
L 152.282114 169.63463 
L 152.391885 168.901179 
L 152.730987 168.150859 
L 153.347758 167.40831 
L 154.277346 166.705427 
L 155.529062 166.077422 
L 157.079255 165.555674 
L 159.148571 165.115509 
L 161.444981 164.850196 
L 164.184777 164.751175 
L 167.289435 164.858912 
L 170.679386 165.196412 
L 174.222124 165.76565 
L 178.041431 166.613098 
L 181.781906 167.679806 
L 185.360606 168.935984 
L 188.699331 170.345356 
L 191.744348 171.873332 
L 194.46373 173.490448 
L 196.733237 175.090299 
L 198.692695 176.740886 
L 200.250764 178.335898 
L 201.475187 179.897694 
L 202.376839 181.394946 
L 203.000209 182.856442 
L 203.354415 184.260215 
L 203.45844 185.58089 
L 203.34207 186.807208 
L 203.001524 188.032814 
L 202.454003 189.182017 
L 201.654664 190.327182 
L 200.636258 191.395552 
L 199.369693 192.407205 
L 197.771533 193.388308 
L 195.944818 194.249014 
L 193.764203 195.024309 
L 191.346621 195.646245 
L 188.677021 196.10498 
L 185.727189 196.379903 
L 182.723051 196.438171 
L 179.56075 196.271296 
L 176.551909 195.892742 
L 173.733367 195.327009 
L 171.056841 194.568638 
L 168.655131 193.655562 
L 166.625711 192.646403 
L 165.013897 191.609877 
L 163.692936 190.499023 
L 162.715842 189.385707 
L 162.072419 188.339924 
L 161.6472 187.211228 
L 161.484919 186.155784 
L 161.546628 185.051256 
L 161.840412 183.938999 
L 162.37946 182.797076 
L 163.190118 181.614465 
L 164.319748 180.374568 
L 165.776444 179.114845 
L 167.568717 177.860412 
L 169.805911 176.569456 
L 172.584571 175.233904 
L 175.821619 173.927317 
L 179.686506 172.613364 
L 183.932789 171.398318 
L 188.941967 170.205764 
L 194.062406 169.215494 
L 199.221082 168.441133 
L 203.862271 167.961429 
L 207.660939 167.784896 
L 210.33764 167.871076 
L 212.011428 168.129629 
L 212.927256 168.474583 
L 213.332297 168.839974 
L 213.429385 169.209388 
L 213.299091 169.622118 
L 212.885095 170.141259 
L 212.038399 170.821849 
L 210.540985 171.717835 
L 208.150414 172.867807 
L 204.677793 174.280836 
L 199.607038 176.088222 
L 192.247394 178.455236 
L 176.293067 183.275723 
L 166.537968 186.3582 
L 160.336989 188.543865 
L 155.976429 190.307132 
L 152.788579 191.827453 
L 150.508287 193.149002 
L 148.953038 194.292788 
L 148.028277 195.22001 
L 147.552362 195.974901 
L 147.406281 196.574041 
L 147.499714 197.073728 
L 147.810255 197.505853 
L 148.400537 197.903654 
L 149.338146 198.238378 
L 150.686529 198.475488 
L 152.747725 198.579568 
L 155.389233 198.468211 
L 158.535761 198.118503 
L 162.415119 197.467868 
L 166.89277 196.493667 
L 171.802659 195.204212 
L 177.331734 193.510399 
L 182.801973 191.595329 
L 188.264234 189.437225 
L 193.13981 187.277164 
L 197.529705 185.101731 
L 201.435758 182.922883 
L 204.688355 180.855969 
L 207.240651 178.977763 
L 209.180214 177.279697 
L 210.504492 175.838838 
L 211.343855 174.611637 
L 211.769668 173.6154 
L 211.881728 172.8124 
L 211.754281 172.174176 
L 211.428496 171.657559 
L 210.893184 171.231718 
L 210.099616 170.89781 
L 208.998397 170.68743 
L 207.540095 170.644175 
L 205.717365 170.81629 
L 203.52036 171.250508 
L 201.034654 171.970742 
L 198.410383 172.959276 
L 195.718116 174.211017 
L 193.190711 175.625771 
L 190.877039 177.168683 
L 188.804655 178.821689 
L 187.064058 180.505802 
L 185.737228 182.090439 
L 184.7064 183.658553 
L 183.973812 185.170696 
L 183.515602 186.619961 
L 183.310648 188.00032 
L 183.338705 189.292976 
L 183.585429 190.534037 
L 184.056599 191.746592 
L 184.758213 192.92515 
L 185.685791 194.052643 
L 186.891677 195.16764 
L 188.350067 196.222407 
L 190.134248 197.247494 
L 192.294697 198.236404 
L 194.900989 199.182389 
L 197.989877 200.062071 
L 201.544646 200.845849 
L 205.932967 201.574339 
L 211.169537 202.203116 
L 218.304189 202.809956 
L 223.139261 203.291696 
L 223.867726 203.544955 
L 223.874564 203.713707 
L 223.585938 203.916328 
L 222.600727 204.284483 
L 219.853828 205.030439 
L 208.490841 207.763894 
L 193.652704 211.465646 
L 176.52772 215.976118 
L 164.562274 219.076451 
L 164.47616 219.060986 
L 164.577271 218.975286 
L 165.677961 218.491793 
L 172.663705 215.802027 
L 182.862767 211.763061 
L 190.789089 208.389394 
L 197.637604 205.234763 
L 204.027789 202.051843 
L 211.061783 198.295932 
L 224.853356 190.849269 
L 228.208767 189.346666 
L 230.884291 188.390122 
L 233.081408 187.836627 
L 234.99475 187.579149 
L 236.714369 187.569345 
L 238.239489 187.770024 
L 239.723406 188.184133 
L 241.140599 188.807525 
L 242.564713 189.682894 
L 243.97757 190.81971 
L 245.412082 192.26577 
L 246.886976 194.072725 
L 248.423167 196.307126 
L 250.077831 199.114502 
L 251.834415 202.536558 
L 253.800736 206.879548 
L 255.917939 212.125068 
L 258.109428 218.162475 
L 260.173946 224.498514 
L 262.008712 230.848911 
L 263.68579 237.443224 
L 265.024082 243.569187 
L 266.030031 249.154748 
L 266.751445 254.393094 
L 267.182315 259.180166 
L 267.337385 263.325376 
L 267.256229 267.087873 
L 266.954525 270.416249 
L 266.472815 273.218876 
L 265.833036 275.590456 
L 265.111751 277.441314 
L 264.288879 278.956748 
L 263.398217 280.13448 
L 262.472719 280.99738 
L 261.50261 281.601762 
L 260.505748 281.965024 
L 259.458306 282.112983 
L 258.33233 282.047333 
L 257.126639 281.755698 
L 255.802116 281.205414 
L 254.312296 280.332608 
L 252.696329 279.113959 
L 250.914782 277.471643 
L 249.094385 275.491089 
L 247.077168 272.952922 
L 245.020512 269.995256 
L 242.937827 266.608008 
L 240.855836 262.801855 
L 238.749212 258.482076 
L 236.638528 253.623431 
L 234.589015 248.326386 
L 232.5904 242.528891 
L 230.68651 236.31315 
L 229.073931 230.301347 
L 227.680071 224.245798 
L 226.42706 217.800605 
L 225.377314 211.234566 
L 224.614678 205.10179 
L 224.189697 199.976996 
L 224.091137 196.255454 
L 224.234402 193.829596 
L 224.529066 192.333716 
L 224.908582 191.463048 
L 225.336697 190.994569 
L 225.814071 190.789795 
L 226.380559 190.795485 
L 227.090911 191.034622 
L 228.037636 191.599171 
L 229.346211 192.654372 
L 231.251465 194.503992 
L 234.347386 197.864792 
L 244.268218 208.819978 
L 248.652649 213.248394 
L 252.854129 217.168015 
L 256.96839 220.696215 
L 261.25704 224.076639 
L 265.626442 227.245322 
L 269.731848 229.957298 
L 273.578333 232.241563 
L 277.205689 234.144905 
L 280.499957 235.635285 
L 283.598464 236.79232 
L 286.137228 237.518794 
L 288.326604 237.930065 
L 290.046884 238.052436 
L 291.447047 237.948646 
L 292.516972 237.658996 
L 293.276365 237.24109 
L 293.852697 236.65045 
L 294.167519 236.01758 
L 294.311198 235.252261 
L 294.266956 234.354141 
L 293.948789 233.10697 
L 293.332787 231.690664 
L 292.425687 230.133142 
L 291.031863 228.186028 
L 289.052007 225.844611 
L 286.73238 223.438795 
L 283.813975 220.722833 
L 280.310356 217.766403 
L 276.287503 214.665237 
L 271.864307 211.535434 
L 267.205337 208.503545 
L 262.184419 205.510023 
L 257.395948 202.913342 
L 252.795586 200.669966 
L 248.653953 198.891315 
L 245.027262 197.564765 
L 241.939839 196.659781 
L 239.398136 196.135062 
L 237.3997 195.940721 
L 235.957687 196.011018 
L 234.987104 196.265402 
L 234.401283 196.632393 
L 234.105472 197.064993 
L 234.031863 197.564373 
L 234.176797 198.15326 
L 234.59004 198.863153 
L 235.343883 199.700534 
L 236.49246 200.638407 
L 238.071386 201.635141 
L 240.010772 202.595655 
L 242.251666 203.454656 
L 244.616141 204.124305 
L 246.988338 204.571701 
L 249.275346 204.787975 
L 251.467191 204.779752 
L 253.557888 204.543994 
L 255.367592 204.118781 
L 256.969469 203.518028 
L 258.340428 202.769481 
L 259.500386 201.880604 
L 260.439369 200.880506 
L 261.17449 199.783592 
L 261.741564 198.546363 
L 262.134467 197.138922 
L 262.326609 195.569513 
L 262.305524 193.944392 
L 262.068855 192.157466 
L 261.612909 190.264476 
L 260.79609 187.905125 
L 259.677494 185.402353 
L 258.201365 182.650822 
L 256.248886 179.48669 
L 253.575361 175.59962 
L 246.627897 165.729161 
L 246.170655 164.605734 
L 246.132983 163.984415 
L 246.316781 163.636665 
L 246.682253 163.433965 
L 247.321006 163.357555 
L 248.406211 163.469835 
L 250.278864 163.908575 
L 253.613987 164.944764 
L 263.715636 168.425239 
L 271.121497 170.823605 
L 276.202853 172.255109 
L 280.012587 173.11097 
L 282.545539 173.479414 
L 284.387608 173.532535 
L 285.466996 173.367246 
L 286.163706 173.046152 
L 286.533845 172.623363 
L 286.663477 172.163801 
L 286.598352 171.491225 
L 286.237255 170.566362 
L 285.505818 169.367588 
L 284.229397 167.727044 
L 282.044101 165.330043 
L 278.609465 161.933432 
L 271.708807 155.498585 
L 265.290909 149.404967 
L 262.324836 146.301888 
L 260.750421 144.358476 
L 260.065775 143.193176 
L 259.909043 142.535827 
L 260.030464 142.185311 
L 260.333875 141.996167 
L 260.892581 141.935213 
L 261.871631 142.073105 
L 263.512318 142.550208 
L 266.079518 143.545693 
L 269.992159 145.320198 
L 275.623217 148.133921 
L 283.222716 152.188428 
L 291.803602 157.013902 
L 294.779767 158.77482 
L 291.410311 156.667551 
L 285.573268 152.779348 
L 279.740651 148.637394 
L 274.535557 144.67488 
L 270.362354 141.224857 
L 267.38108 138.484601 
L 265.499486 136.471638 
L 264.524773 135.129108 
L 264.184181 134.321481 
L 264.208718 133.876885 
L 264.432296 133.638338 
L 264.865694 133.526477 
L 265.633251 133.57894 
L 266.922534 133.909649 
L 268.907701 134.664669 
L 271.704526 135.974874 
L 275.350119 137.931996 
L 279.742464 140.55049 
L 284.288831 143.522616 
L 288.324604 146.41362 
L 291.653885 149.064119 
L 293.854072 151.069209 
L 295.220656 152.575304 
L 295.936187 153.676472 
L 296.123516 154.312401 
L 296.028539 154.73384 
L 295.746234 154.975348 
L 295.16331 155.113382 
L 294.195582 155.065265 
L 292.619618 154.720023 
L 290.380651 153.972174 
L 287.533178 152.782783 
L 284.017122 151.074279 
L 279.92669 148.830317 
L 275.727755 146.267015 
L 271.765028 143.588742 
L 268.304843 140.985305 
L 265.618077 138.693278 
L 263.821206 136.886065 
L 262.821131 135.589932 
L 262.44144 134.770821 
L 262.442698 134.309071 
L 262.650875 134.060141 
L 263.063421 133.939897 
L 263.791032 133.981341 
L 264.983931 134.287994 
L 266.772284 134.988717 
L 269.265377 136.218739 
L 272.280941 137.956905 
L 275.676542 140.166793 
L 279.203618 142.72613 
L 282.463027 145.357288 
L 285.261274 147.882738 
L 287.539806 150.213911 
L 289.333527 152.353486 
L 290.597677 154.199617 
L 291.368373 155.691459 
L 291.783809 156.966308 
L 291.885449 158.01043 
L 291.740289 158.827371 
L 291.434065 159.433208 
L 290.951591 159.95046 
L 290.299403 160.364019 
L 289.320007 160.714023 
L 287.964727 160.926354 
L 286.229289 160.941403 
L 284.137853 160.723993 
L 281.490093 160.201751 
L 278.612736 159.405773 
L 275.403987 158.295453 
L 271.85384 156.829983 
L 268.255682 155.10371 
L 264.765536 153.185808 
L 261.512493 151.14262 
L 258.802255 149.181551 
L 256.741869 147.425738 
L 255.415796 146.023849 
L 254.740877 145.017092 
L 254.553935 144.382098 
L 254.655317 144.028472 
L 254.94136 143.835009 
L 255.463873 143.77337 
L 256.336962 143.909521 
L 257.682271 144.356273 
L 259.560233 145.225096 
L 261.927494 146.575006 
L 264.605885 148.362101 
L 267.371657 150.468613 
L 270.140214 152.855759 
L 272.659874 155.316864 
L 274.861204 157.767061 
L 276.750371 160.200302 
L 278.249476 162.490438 
L 279.344016 164.537325 
L 280.146392 166.478647 
L 280.657906 168.270832 
L 280.902164 169.878351 
L 280.907401 171.508151 
L 280.67877 172.911779 
L 280.196944 174.291017 
L 279.58886 175.386889 
L 278.797674 176.405357 
L 277.63192 177.498325 
L 276.272797 178.43524 
L 274.769475 179.215305 
L 272.888994 179.941723 
L 270.637054 180.558726 
L 268.048935 181.022678 
L 265.191908 181.305348 
L 261.898927 181.395315 
L 258.332341 181.255574 
L 254.640426 180.880035 
L 251.027877 180.292712 
L 247.536773 179.504158 
L 244.404324 178.575518 
L 241.689542 177.543416 
L 239.513256 176.486999 
L 237.820688 175.425278 
L 236.64928 174.442304 
L 235.929432 173.564508 
L 235.617147 172.856719 
L 235.612073 172.334032 
L 235.820161 171.970249 
L 236.221656 171.726249 
L 236.850772 171.617361 
L 237.748772 171.697521 
L 238.932398 172.037054 
L 240.340778 172.680693 
L 241.872535 173.627586 
L 243.421024 174.842118 
L 244.949207 176.33068 
L 246.300415 177.965346 
L 247.411924 179.661166 
L 248.219314 181.269242 
L 248.800537 182.921211 
L 249.102958 184.475807 
L 249.150023 185.932988 
L 248.970076 187.29415 
L 248.555381 188.671831 
L 247.928206 189.98869 
L 247.032011 191.333209 
L 245.97257 192.536865 
L 244.643523 193.709795 
L 243.048562 194.797414 
L 241.364492 195.678275 
L 239.509855 196.406505 
L 237.505975 196.961537 
L 235.334532 197.327853 
L 233.184905 197.465884 
L 231.092652 197.379204 
L 229.222993 197.082294 
L 227.765859 196.636419 
L 226.852017 196.144807 
L 226.488203 195.729226 
L 226.49923 195.452414 
L 226.737999 195.261396 
L 227.27899 195.143508 
L 228.223191 195.18044 
L 229.561743 195.461716 
L 231.225244 196.046293 
L 233.040508 196.924635 
L 234.840648 198.035227 
L 236.587423 199.36589 
L 238.199052 200.87065 
L 239.557472 202.431231 
L 240.673269 204.035922 
L 241.50975 205.597424 
L 242.117063 207.184576 
L 242.475987 208.763436 
L 242.579774 210.131043 
L 242.485351 211.434591 
L 242.203433 212.668244 
L 241.684782 213.947774 
L 240.966989 215.124398 
L 240.006084 216.256922 
L 238.835235 217.285273 
L 237.475759 218.192896 
L 235.805123 219.033633 
L 233.885288 219.736986 
L 231.822524 220.25688 
L 229.53023 220.602811 
L 227.127136 220.736087 
L 224.749832 220.645263 
L 222.527458 220.339776 
L 220.68447 219.868745 
L 219.425638 219.3339 
L 218.820537 218.864374 
L 218.713523 218.547086 
L 218.8661 218.345286 
L 219.290925 218.198377 
L 220.135119 218.163189 
L 221.472426 218.342499 
L 223.224997 218.809302 
L 225.227338 219.578793 
L 227.288308 220.614388 
L 229.198432 221.816828 
L 230.893177 223.129741 
L 232.412808 224.588052 
L 233.585567 226.00888 
L 234.465445 227.395236 
L 235.105003 228.808419 
L 235.456236 230.071385 
L 235.589797 231.283264 
L 235.519019 232.431024 
L 235.263094 233.497533 
L 234.791767 234.575779 
L 234.026638 235.702669 
L 233.000542 236.749238 
L 231.748297 237.675849 
L 230.294919 238.471981 
L 228.535063 239.17555 
L 226.552999 239.726008 
L 224.356641 240.107186 
L 221.963816 240.295748 
L 219.493705 240.265304 
L 217.131179 240.017405 
L 215.041435 239.581909 
L 213.45335 239.035666 
L 212.538222 238.507364 
L 212.239665 238.115901 
L 212.295224 237.876285 
L 212.584494 237.704755 
L 213.234537 237.606547 
L 214.370767 237.673449 
L 215.98772 237.996917 
L 217.930322 238.611083 
L 220.016181 239.499608 
L 222.09562 240.626582 
L 223.967119 241.886699 
L 225.621765 243.26638 
L 226.948157 244.652997 
L 227.977342 246.040614 
L 228.692652 247.354691 
L 229.156729 248.665306 
L 229.361068 249.948148 
L 229.327043 251.028776 
L 229.107974 252.033833 
L 228.670177 253.062622 
L 228.044314 254.005554 
L 227.174647 254.927259 
L 226.081746 255.773301 
L 224.641227 256.591234 
L 222.884453 257.304745 
L 220.893067 257.857676 
L 218.672325 258.23661 
L 216.237449 258.418789 
L 213.776128 258.381488 
L 211.322398 258.120761 
L 209.186209 257.676272 
L 207.540919 257.117843 
L 206.58647 256.581601 
L 206.258773 256.179827 
L 206.300705 255.93447 
L 206.57529 255.75992 
L 207.202075 255.654381 
L 208.328475 255.707038 
L 209.945826 256.011815 
L 211.912149 256.607741 
L 214.067424 257.494441 
L 216.162941 258.593778 
L 218.052108 259.823442 
L 219.725711 261.170822 
L 221.07036 262.526813 
L 222.116092 263.886589 
L 222.843962 265.178131 
L 223.314954 266.472026 
L 223.506521 267.60028 
L 223.484609 268.674967 
L 223.259973 269.691973 
L 222.788682 270.740884 
L 222.121058 271.676957 
L 221.216819 272.563406 
L 220.102328 273.359696 
L 218.652061 274.117786 
L 216.900059 274.769001 
L 214.929026 275.263479 
L 212.625382 275.602296 
L 210.174066 275.731411 
L 207.651509 275.63897 
L 205.21624 275.3258 
L 203.122452 274.837074 
L 201.590565 274.263082 
L 200.766016 273.740444 
L 200.536225 273.37226 
L 200.625486 273.148369 
L 200.9568 272.984006 
L 201.675964 272.900343 
L 202.90502 272.993518 
L 204.627324 273.352669 
L 206.688289 274.012285 
L 208.838341 274.929527 
L 210.927642 276.055944 
L 212.856118 277.348654 
L 214.444475 278.670973 
L 215.771631 280.067025 
L 216.70508 281.350124 
L 217.387825 282.664639 
L 217.763084 283.848479 
L 217.89843 284.999622 
L 217.792201 286.120171 
L 217.442485 287.187022 
L 216.83488 288.211061 
L 215.951618 289.179603 
L 214.847363 290.027803 
L 213.403368 290.821497 
L 211.795159 291.450829 
L 209.804139 291.981568 
L 207.579311 292.336047 
L 205.134021 292.493734 
L 202.638561 292.433288 
L 200.195096 292.157084 
L 198.006795 291.692635 
L 196.341365 291.125196 
L 195.358966 290.577878 
L 195.019171 290.17122 
L 195.056425 289.922406 
L 195.326213 289.746988 
L 195.946881 289.638039 
L 197.076626 289.683472 
L 198.705989 289.977692 
L 200.727863 290.5714 
L 202.906999 291.442041 
L 205.026851 292.520778 
L 207.032513 293.792861 
L 208.726354 295.13032 
L 210.080823 296.475929 
L 211.125504 297.826494 
L 211.840412 299.112737 
L 212.249512 300.273402 
L 212.422018 301.404232 
L 212.356078 302.506425 
L 212.039951 303.579194 
L 211.553663 304.471932 
L 210.81216 305.370566 
L 209.859338 306.184192 
L 208.572956 306.975623 
L 206.965541 307.67787 
L 205.091833 308.239055 
L 202.927514 308.644299 
L 200.560554 308.856863 
L 198.028837 308.857026 
L 195.533019 308.636951 
L 193.233561 308.217247 
L 191.363484 307.658243 
L 190.171035 307.088752 
L 189.662405 306.631517 
L 189.617694 306.342577 
L 189.812972 306.153524 
L 190.31255 306.017716 
L 191.273817 306.00426 
L 192.775629 306.215901 
L 194.720663 306.720306 
L 196.91038 307.521585 
L 199.096589 308.556619 
L 201.156315 309.777658 
L 202.949049 311.099149 
L 204.424539 312.464993 
L 205.514418 313.761559 
L 206.28888 314.999368 
L 206.808003 316.247783 
L 207.038586 317.347029 
L 207.043445 318.411207 
L 206.813183 319.458499 
L 206.381479 320.388136 
L 205.657754 321.352291 
L 204.708661 322.210205 
L 203.42533 323.029405 
L 201.965352 323.694026 
L 200.225752 324.25047 
L 198.157979 324.678593 
L 195.822719 324.930514 
L 193.332537 324.974039 
L 190.805011 324.797495 
L 188.420663 324.411767 
L 186.440781 323.876219 
L 185.077351 323.294421 
L 184.421347 322.80247 
L 184.294176 322.476441 
L 184.436364 322.272298 
L 184.848354 322.120142 
L 185.695162 322.067767 
L 187.07966 322.217995 
L 188.960778 322.655313 
L 191.104215 323.383357 
L 193.350439 324.384424 
L 195.459898 325.569213 
L 197.343964 326.886937 
L 198.840605 328.193717 
L 200.050341 329.541181 
L 200.929359 330.860093 
L 201.479322 332.086567 
L 201.742715 333.166612 
L 201.785994 334.210157 
L 201.602731 335.237884 
L 201.20437 336.184869 
L 200.61681 337.040412 
L 199.813981 337.847166 
L 198.68505 338.655154 
L 197.231674 339.393247 
L 195.482975 340.01003 
L 193.518024 340.465979 
L 191.221826 340.764494 
L 188.777445 340.857484 
L 186.224859 340.732146 
L 183.761802 340.38921 
L 181.652838 339.878808 
L 180.11564 339.293082 
L 179.290081 338.766687 
L 179.059482 338.397438 
L 179.149212 338.172776 
L 179.483971 338.007311 
L 180.211879 337.92207 
L 181.471776 338.014155 
L 183.224161 338.370199 
L 185.322362 339.023528 
L 187.510617 339.930455 
L 189.63507 341.042098 
L 191.59341 342.316016 
L 193.203179 343.618238 
L 194.458748 344.894889 
L 195.408164 346.148459 
L 195.68341 346.6 
L 195.68341 346.6 
" clip-path="url(#p5f91b4a9ee)" style="fill: none; stroke: #ff7f0e; stroke-width: 1.5; stroke-linecap: square"/>
   </g>
   <g id="line2d_21">
    <defs>
     <path id="m7fd328f7b2" d="M 0 3 
C 0.795609 3 1.55874 2.683901 2.12132 2.12132 
C 2.683901 1.55874 3 0.795609 3 0 
C 3 -0.795609 2.683901 -1.55874 2.12132 -2.12132 
C 1.55874 -2.683901 0.795609 -3 0 -3 
C -0.795609 -3 -1.55874 -2.683901 -2.12132 -2.12132 
C -2.683901 -1.55874 -3 -0.795609 -3 0 
C -3 0.795609 -2.683901 1.55874 -2.12132 2.12132 
C -1.55874 2.683901 -0.795609 3 0 3 
z
" style="stroke: #ff7f0e"/>
    </defs>
    <g clip-path="url(#p5f91b4a9ee)">
     <use xlink:href="#m7fd328f7b2" x="169.280094" y="385.392695" style="fill: #ff7f0e; stroke: #ff7f0e"/>
    </g>
   </g>
   <g id="line2d_22">
    <path d="M 264.197076 213.022531 
L 257.172659 210.176202 
L 250.916418 207.876111 
L 245.57738 206.138037 
L 240.695943 204.778502 
L 236.414517 203.813542 
L 232.610656 203.184651 
L 229.459132 202.881719 
L 226.91051 202.852371 
L 225.150993 203.040069 
L 224.192632 203.342192 
L 223.870081 203.640882 
L 223.890431 203.890399 
L 224.16182 204.156595 
L 224.835433 204.471604 
L 226.111571 204.803542 
L 228.075782 205.074238 
L 230.694055 205.201948 
L 233.749514 205.122262 
L 237.040803 204.807201 
L 240.345921 204.260928 
L 243.559808 203.495432 
L 246.575796 202.538716 
L 249.136427 201.512039 
L 251.575357 200.310361 
L 253.75622 199.003706 
L 255.796053 197.522747 
L 257.546888 195.980553 
L 259.102826 194.307566 
L 260.371485 192.618754 
L 261.413718 190.85773 
L 262.184563 189.1262 
L 262.718859 187.382475 
L 263.006543 185.685883 
L 263.057336 184.035259 
L 262.878317 182.470035 
L 262.499488 181.05 
L 261.893386 179.657667 
L 261.109573 178.408671 
L 260.125961 177.249556 
L 258.939526 176.186239 
L 257.486275 175.189105 
L 255.743368 174.282846 
L 253.731402 173.505244 
L 251.450933 172.870357 
L 248.855647 172.378744 
L 245.868874 172.034526 
L 242.177351 171.841104 
L 237.529459 171.834317 
L 228.978377 172.103935 
L 223.114729 172.17647 
L 219.743737 172.006277 
L 217.432643 171.677559 
L 215.869728 171.241456 
L 214.853623 170.73985 
L 214.226415 170.192386 
L 213.891431 169.613771 
L 213.780707 168.975032 
L 213.885748 168.249873 
L 214.241428 167.385009 
L 214.933643 166.313213 
L 216.078556 164.976063 
L 217.79423 163.333506 
L 220.188449 161.364234 
L 223.170658 159.205368 
L 226.327065 157.182988 
L 229.367542 155.481252 
L 232.237303 154.126951 
L 234.695873 153.201767 
L 236.950045 152.586872 
L 238.918023 152.271303 
L 240.745604 152.199611 
L 242.406817 152.352726 
L 243.881612 152.690879 
L 245.362422 153.249078 
L 246.832069 154.046553 
L 248.264779 155.081048 
L 249.817243 156.50738 
L 251.433081 158.331778 
L 253.237885 160.740809 
L 255.591157 164.295824 
L 260.68017 172.080231 
L 262.90726 175.017667 
L 264.897123 177.287942 
L 266.805801 179.130594 
L 268.564905 180.522946 
L 270.145328 181.501359 
L 271.549683 182.120671 
L 272.757278 182.418313 
L 273.748758 182.440794 
L 274.523839 182.247994 
L 275.132029 181.876926 
L 275.587758 181.34463 
L 275.902699 180.631949 
L 276.056388 179.714818 
L 276.013762 178.58417 
L 275.739539 177.242657 
L 275.191636 175.679694 
L 274.359262 173.9674 
L 273.209543 172.111806 
L 271.763596 170.207272 
L 270.118289 168.396879 
L 268.273456 166.68181 
L 266.148067 165.019326 
L 263.956105 163.588206 
L 261.593498 162.316082 
L 259.10706 161.238788 
L 256.559551 160.37902 
L 254.033143 159.742668 
L 251.272236 159.266376 
L 248.339294 158.982717 
L 244.988984 158.903874 
L 241.434502 159.066015 
L 237.6054 159.478467 
L 233.294858 160.183881 
L 228.46491 161.215615 
L 223.197142 162.578248 
L 218.580855 163.992673 
L 215.824049 165.046741 
L 214.644043 165.705726 
L 214.326313 166.095633 
L 214.379833 166.331371 
L 214.682415 166.535364 
L 215.439573 166.741157 
L 217.017449 166.91573 
L 220.002989 167.002234 
L 226.062795 166.919676 
L 236.44787 166.798402 
L 241.768423 166.971414 
L 246.062183 167.326156 
L 249.678707 167.829923 
L 253.014691 168.510291 
L 255.962915 169.330921 
L 258.735726 170.343676 
L 261.088041 171.441681 
L 263.213675 172.68858 
L 264.942936 173.953369 
L 266.405117 175.283696 
L 267.638044 176.704928 
L 268.589624 178.143273 
L 269.266121 179.561038 
L 269.695811 180.964267 
L 269.889216 182.324276 
L 269.862056 183.649861 
L 269.625298 184.913674 
L 269.154152 186.188848 
L 268.496531 187.33706 
L 267.609371 188.436928 
L 266.521341 189.430468 
L 265.195853 190.33033 
L 263.67168 191.088789 
L 261.967274 191.688305 
L 260.070015 192.122355 
L 257.947904 192.378172 
L 255.554008 192.431338 
L 252.945506 192.25709 
L 250.079224 191.839137 
L 246.720352 191.113229 
L 242.775166 190.027379 
L 236.894503 188.154898 
L 227.537534 185.183683 
L 222.850618 183.937552 
L 218.764135 183.08043 
L 215.235878 182.564311 
L 212.145311 182.328149 
L 209.39992 182.335049 
L 207.006533 182.56178 
L 205.008876 182.970656 
L 203.358394 183.532565 
L 202.045258 184.212213 
L 201.060161 184.961405 
L 200.328559 185.786669 
L 199.833843 186.670737 
L 199.556814 187.60811 
L 199.487723 188.633517 
L 199.642917 189.738551 
L 200.039094 190.919768 
L 200.708716 192.192595 
L 201.662348 193.519344 
L 202.907141 194.874443 
L 204.467326 196.247729 
L 206.349306 197.604258 
L 208.452664 198.848491 
L 210.719056 199.94052 
L 213.222101 200.894356 
L 215.761885 201.618029 
L 218.238471 202.09762 
L 220.752492 202.356961 
L 223.252117 202.381382 
L 225.708986 202.167481 
L 228.078103 201.724204 
L 230.300342 201.083464 
L 232.58892 200.182798 
L 234.939127 198.992663 
L 237.32714 197.504621 
L 239.704008 195.756485 
L 242.51804 193.394004 
L 247.19655 189.091086 
L 250.876122 185.825437 
L 253.413242 183.846376 
L 255.674375 182.34623 
L 257.785715 181.200479 
L 259.791866 180.356485 
L 261.753224 179.775826 
L 263.587967 179.468978 
L 265.25281 179.412887 
L 266.762656 179.580453 
L 268.09603 179.951981 
L 269.182966 180.47657 
L 270.073758 181.147786 
L 270.745963 181.932073 
L 271.1919 182.784272 
L 271.438024 183.739791 
L 271.466126 184.754422 
L 271.270202 185.834794 
L 270.842327 186.955374 
L 270.138878 188.154937 
L 269.145954 189.38617 
L 267.905151 190.573402 
L 266.301658 191.787181 
L 264.452234 192.904192 
L 262.293926 193.943835 
L 259.831567 194.87313 
L 257.072083 195.661299 
L 254.262365 196.240013 
L 250.995508 196.675381 
L 247.51607 196.899931 
L 243.927112 196.910286 
L 240.091507 196.70921 
L 235.741546 196.258824 
L 230.738882 195.505968 
L 224.844694 194.377429 
L 217.960222 192.823856 
L 213.633232 191.660013 
L 213.421397 191.538154 
L 213.55879 191.512786 
L 214.604776 191.620624 
L 218.889465 192.326942 
L 231.523607 194.437891 
L 236.944916 195.104426 
L 241.704645 195.465276 
L 245.763377 195.554279 
L 249.588899 195.409486 
L 252.982726 195.056979 
L 256.158691 194.497564 
L 259.062769 193.749732 
L 261.668788 192.838376 
L 263.96233 191.791631 
L 265.932673 190.641147 
L 267.565435 189.428462 
L 268.897982 188.156025 
L 269.90929 186.875465 
L 270.600724 185.646767 
L 271.022197 184.455001 
L 271.192102 183.33197 
L 271.131908 182.247993 
L 270.858842 181.260339 
L 270.380147 180.346071 
L 269.686357 179.505321 
L 268.796496 178.777489 
L 267.71251 178.175326 
L 266.415306 177.712342 
L 264.916059 177.423258 
L 263.286363 177.339715 
L 261.538045 177.471885 
L 259.653965 177.839805 
L 257.66718 178.458267 
L 255.607288 179.33057 
L 253.314948 180.555017 
L 250.82553 182.150191 
L 247.767206 184.401349 
L 236.684556 192.869648 
L 233.995066 194.508634 
L 231.293395 195.897386 
L 228.64274 197.002596 
L 226.091643 197.828782 
L 223.404976 198.454553 
L 220.87762 198.82197 
L 218.306151 198.981676 
L 215.761483 198.929986 
L 213.075014 198.647243 
L 210.505173 198.148789 
L 208.09487 197.461891 
L 205.756345 196.564108 
L 203.669666 195.529786 
L 201.843761 194.389015 
L 200.284163 193.166691 
L 199.003993 191.892817 
L 197.998543 190.578248 
L 197.300575 189.297174 
L 196.890138 188.092647 
L 196.724681 186.943945 
L 196.782122 185.869122 
L 197.064241 184.80139 
L 197.564565 183.800042 
L 198.278084 182.869243 
L 199.216386 182.004087 
L 200.409671 181.203077 
L 201.867929 180.490026 
L 203.625639 179.880514 
L 205.684062 179.407457 
L 208.01995 179.102506 
L 210.673127 178.988227 
L 213.600716 179.094408 
L 216.701386 179.43021 
L 220.140512 180.034071 
L 223.808484 180.911337 
L 227.780656 182.093801 
L 232.224342 183.646423 
L 238.675734 186.160167 
L 245.532969 188.785438 
L 249.394495 190.022324 
L 252.441622 190.772394 
L 255.075934 191.20655 
L 257.509487 191.390712 
L 259.734512 191.341294 
L 261.809233 191.070922 
L 263.645436 190.611434 
L 265.274932 189.98481 
L 266.714849 189.203298 
L 267.958534 188.282304 
L 268.971975 187.266269 
L 269.771484 186.161927 
L 270.349496 184.99988 
L 270.711432 183.795032 
L 270.860633 182.563022 
L 270.79235 181.259007 
L 270.492849 179.940022 
L 269.9747 178.65601 
L 269.196665 177.339679 
L 268.211694 176.101748 
L 266.91582 174.842375 
L 265.403 173.684068 
L 263.644575 172.61096 
L 261.535994 171.593601 
L 259.224684 170.72619 
L 256.540251 169.966244 
L 253.664058 169.383659 
L 250.363074 168.949822 
L 246.59381 168.698221 
L 242.398705 168.655404 
L 237.383394 168.84305 
L 230.483694 169.353845 
L 219.922122 170.144553 
L 216.453274 170.175248 
L 214.447784 169.988423 
L 213.401933 169.689546 
L 212.960236 169.35853 
L 212.858556 169.026737 
L 212.985377 168.652345 
L 213.409268 168.157887 
L 214.307232 167.480908 
L 215.92741 166.560205 
L 218.483169 165.378259 
L 221.968762 164.013059 
L 226.180993 162.605184 
L 230.356761 161.43536 
L 234.373804 160.53077 
L 238.164774 159.898242 
L 241.617766 159.532464 
L 245.089527 159.391063 
L 248.331566 159.486408 
L 251.460832 159.808314 
L 254.327236 160.320984 
L 257.15176 161.050803 
L 259.841898 161.976806 
L 262.33774 163.064741 
L 264.756885 164.365738 
L 266.9815 165.825845 
L 268.92504 167.375108 
L 270.53209 168.936525 
L 271.818598 170.48968 
L 272.748799 171.947215 
L 273.352922 173.297707 
L 273.6379 174.46079 
L 273.658149 175.433199 
L 273.461488 176.229688 
L 273.078861 176.867867 
L 272.533503 177.351975 
L 271.801049 177.698985 
L 270.873625 177.883003 
L 269.75014 177.874036 
L 268.400747 177.632836 
L 266.851029 177.120702 
L 265.168496 176.330159 
L 263.353427 175.236013 
L 261.392078 173.793524 
L 259.267158 171.942817 
L 257.028156 169.691413 
L 254.444229 166.767581 
L 246.351769 157.3146 
L 244.452029 155.623298 
L 242.828707 154.466342 
L 241.33933 153.651028 
L 239.795475 153.052203 
L 238.221531 152.687884 
L 236.648658 152.554197 
L 234.881612 152.652989 
L 233.159438 152.975182 
L 231.288144 153.546866 
L 229.107659 154.464196 
L 226.702546 155.741544 
L 224.027787 157.435446 
L 221.145882 159.532784 
L 218.129289 162.001669 
L 215.242307 164.649916 
L 212.9984 166.997248 
L 211.477375 168.895327 
L 210.606625 170.312881 
L 210.195013 171.381658 
L 210.116499 172.1694 
L 210.271183 172.758929 
L 210.621809 173.221551 
L 211.196502 173.593911 
L 212.056853 173.872011 
L 213.308376 174.03174 
L 215.088212 174.024529 
L 217.599463 173.778806 
L 221.157803 173.189005 
L 226.681353 172.017746 
L 237.970726 169.576885 
L 242.376765 168.876824 
L 246.01165 168.523915 
L 248.998474 168.447841 
L 251.649657 168.595784 
L 253.958664 168.940833 
L 256.013222 169.471375 
L 257.751934 170.14174 
L 259.302307 170.978541 
L 260.610779 171.942136 
L 261.662663 172.984908 
L 262.508412 174.120065 
L 263.190639 175.416204 
L 263.642386 176.738372 
L 263.905247 178.185706 
L 263.957821 179.719171 
L 263.793554 181.313235 
L 263.390652 183.015796 
L 262.733131 184.785264 
L 261.828506 186.562373 
L 260.634998 188.387969 
L 259.179011 190.184963 
L 257.553288 191.850217 
L 255.696606 193.457446 
L 253.447641 195.106407 
L 250.898824 196.685727 
L 247.961588 198.218573 
L 244.882528 199.568805 
L 241.393858 200.844415 
L 237.656762 201.960901 
L 233.825566 202.867699 
L 230.135794 203.516074 
L 226.925944 203.863003 
L 224.757738 203.893463 
L 223.891562 203.723265 
L 223.834492 203.56903 
L 223.840225 203.560526 
L 224.098141 203.392653 
L 224.949996 203.141835 
L 226.770531 202.856839 
L 229.580549 202.650506 
L 233.24968 202.608091 
L 237.755911 202.782591 
L 243.569704 203.24592 
L 259.015733 204.624097 
L 261.77671 204.580764 
L 263.601872 204.357091 
L 264.967722 203.975486 
L 265.909778 203.472452 
L 266.495433 202.901775 
L 266.811375 202.323978 
L 266.975116 201.51031 
L 266.906492 200.575877 
L 266.55467 199.356758 
L 265.84577 197.831402 
L 264.741881 195.997108 
L 262.927857 193.441805 
L 259.71171 189.37002 
L 254.301814 182.543032 
L 252.152935 179.450876 
L 250.72044 177.015108 
L 249.731594 174.898732 
L 249.135612 173.107385 
L 248.854552 171.582399 
L 248.838894 170.29965 
L 249.039144 169.308489 
L 249.398646 168.596599 
L 249.857742 168.160933 
L 250.364261 167.976136 
L 250.909703 168.015126 
L 251.480371 168.28467 
L 252.064148 168.813312 
L 252.624336 169.623636 
L 253.130954 170.760118 
L 253.521085 172.204086 
L 253.742227 173.870182 
L 253.773009 175.738875 
L 253.578633 177.862266 
L 253.162637 180.002084 
L 252.522933 182.17951 
L 251.671854 184.334994 
L 250.555367 186.548591 
L 249.240639 188.640685 
L 247.753621 190.564615 
L 246.18657 192.213637 
L 244.620892 193.539913 
L 243.073119 194.564527 
L 241.597934 195.281969 
L 240.181816 195.724255 
L 238.890663 195.899714 
L 237.701883 195.84605 
L 236.607557 195.58691 
L 235.543462 195.107204 
L 234.540792 194.405356 
L 233.590195 193.458144 
L 232.7005 192.246775 
L 231.882455 190.755448 
L 231.109973 188.873865 
L 230.402444 186.55224 
L 229.71601 183.481592 
L 228.974911 179.035946 
L 227.641855 170.905463 
L 226.85129 167.5576 
L 225.998195 164.881974 
L 225.076128 162.698228 
L 224.078501 160.888735 
L 222.984633 159.366686 
L 221.837037 158.149782 
L 220.634105 157.192116 
L 219.342759 156.449423 
L 217.998731 155.930875 
L 216.570053 155.61591 
L 215.05833 155.507719 
L 213.451766 155.612886 
L 211.749105 155.945013 
L 209.980504 156.512794 
L 208.172132 157.325513 
L 206.475401 158.325065 
L 205.007362 159.441835 
L 203.967665 160.500429 
L 203.400055 161.380551 
L 203.238822 162.004416 
L 203.348291 162.44563 
L 203.66167 162.737686 
L 204.231496 162.916589 
L 205.106299 162.930672 
L 206.333318 162.718965 
L 207.945526 162.210074 
L 209.925089 161.338424 
L 211.935927 160.222913 
L 214.013991 158.837202 
L 216.216376 157.091733 
L 218.254001 155.178486 
L 220.082021 153.150816 
L 221.658844 151.078971 
L 223.081845 148.830281 
L 224.18614 146.686709 
L 225.065779 144.528393 
L 225.740943 142.288018 
L 226.167432 140.097519 
L 226.351926 138.00678 
L 226.306628 135.963468 
L 226.048761 134.106577 
L 225.572178 132.323046 
L 224.908239 130.726648 
L 224.096598 129.352372 
L 223.152238 128.18238 
L 222.083219 127.21033 
L 220.913628 126.450864 
L 219.667042 125.912499 
L 218.401764 125.605413 
L 217.113502 125.51437 
L 215.80832 125.638884 
L 214.489965 125.987789 
L 213.205503 126.558625 
L 212.009606 127.324052 
L 210.86592 128.315238 
L 209.830297 129.505164 
L 208.900742 130.928283 
L 208.175307 132.442666 
L 207.623019 134.102141 
L 207.265793 135.884714 
L 207.123179 137.771598 
L 207.202489 139.622816 
L 207.516607 141.580486 
L 208.054006 143.488193 
L 208.838535 145.408569 
L 209.766309 147.125747 
L 210.993629 148.918778 
L 212.38983 150.560749 
L 214.086883 152.18517 
L 215.857382 153.572861 
L 217.870451 154.865226 
L 220.105448 156.018646 
L 222.512541 156.986965 
L 224.996934 157.727377 
L 227.451053 158.221254 
L 229.781293 158.476743 
L 232.171882 158.513399 
L 234.269954 158.334757 
L 236.243089 157.947725 
L 237.991074 157.367585 
L 239.335101 156.696191 
L 240.405733 155.92627 
L 241.189243 155.106247 
L 241.714627 154.257929 
L 242.015646 153.346783 
L 242.074782 152.460386 
L 241.918939 151.608015 
L 241.525838 150.736652 
L 240.908692 149.936884 
L 240.098605 149.254417 
L 239.102665 148.708039 
L 237.936738 148.333691 
L 236.717266 148.176462 
L 235.469276 148.231197 
L 234.153365 148.515337 
L 232.90216 149.008565 
L 231.635196 149.753085 
L 230.423592 150.736336 
L 229.312511 151.929559 
L 228.266148 153.394179 
L 227.351622 155.064197 
L 226.550781 157.001131 
L 225.906974 159.136391 
L 225.412917 161.538543 
L 225.093411 164.165779 
L 224.95443 167.190835 
L 225.024324 170.459836 
L 225.346236 174.452239 
L 226.019691 179.701242 
L 226.900409 186.65401 
L 226.976555 189.036596 
L 226.817992 190.470016 
L 226.523686 191.293794 
L 226.153958 191.719039 
L 225.728332 191.87925 
L 225.212442 191.826645 
L 224.539133 191.517587 
L 223.639766 190.839836 
L 222.464796 189.657096 
L 221.028744 187.888826 
L 219.39071 185.51564 
L 217.729949 182.711627 
L 216.247359 179.771083 
L 215.030818 176.87732 
L 214.096265 174.114096 
L 213.429255 171.505701 
L 212.999542 168.968307 
L 212.817264 166.545574 
L 212.879653 164.331797 
L 213.145271 162.439491 
L 213.60695 160.714015 
L 214.23768 159.220957 
L 214.979124 158.015731 
L 215.855566 157.016145 
L 216.799276 156.278337 
L 217.759744 155.796844 
L 218.76831 155.535767 
L 219.766604 155.506181 
L 220.718745 155.696829 
L 221.611124 156.100599 
L 222.39006 156.688762 
L 223.063431 157.473427 
L 223.577619 158.405579 
L 223.926279 159.481081 
L 224.09599 160.743343 
L 224.049005 162.146363 
L 223.760558 163.697917 
L 223.207513 165.386181 
L 222.384209 167.18018 
L 221.218349 169.182105 
L 219.66592 171.404282 
L 217.555795 174.022727 
L 214.599709 177.30804 
L 204.261815 188.458084 
L 202.744537 190.572398 
L 201.860628 192.158312 
L 201.380875 193.434096 
L 201.199606 194.579931 
L 201.281804 195.445806 
L 201.571018 196.204918 
L 202.050198 196.861839 
L 202.822093 197.507755 
L 203.942283 198.102718 
L 205.44367 198.614098 
L 207.526079 199.052829 
L 210.188234 199.36964 
L 213.744912 199.56067 
L 218.813981 199.591253 
L 225.684702 199.397102 
L 230.517396 199.069838 
L 232.901844 198.706011 
L 234.15432 198.309705 
L 234.808818 197.887479 
L 235.102766 197.449096 
L 235.161841 196.96246 
L 234.998849 196.366196 
L 234.539908 195.579832 
L 233.608091 194.464047 
L 231.931096 192.836081 
L 228.682592 190.039178 
L 222.231957 184.496777 
L 219.41645 181.761194 
L 217.332548 179.432986 
L 215.741516 177.325027 
L 214.542409 175.36002 
L 213.719139 173.593834 
L 213.166584 171.878961 
L 212.886879 170.31211 
L 212.833011 168.765189 
L 213.006955 167.242714 
L 213.408329 165.751223 
L 214.014575 164.33836 
L 214.868201 162.918239 
L 215.944816 161.564707 
L 217.206208 160.32693 
L 218.702807 159.172087 
L 220.4073 158.152001 
L 222.310184 157.296952 
L 224.135287 156.705577 
L 226.185551 156.268132 
L 228.482675 156.028354 
L 230.716298 156.024194 
L 232.983969 156.235075 
L 235.378478 156.684819 
L 237.74618 157.360736 
L 240.029781 158.245899 
L 242.109385 159.284427 
L 243.938883 160.44099 
L 245.370502 161.603338 
L 246.292872 162.624673 
L 246.711841 163.391516 
L 246.751286 163.875572 
L 246.56803 164.138244 
L 246.200792 164.255418 
L 245.580259 164.199955 
L 244.642168 163.880957 
L 243.36564 163.202724 
L 241.787917 162.100465 
L 240.009792 160.573879 
L 238.175103 158.704059 
L 236.332134 156.512105 
L 234.548969 154.047283 
L 232.953972 151.477469 
L 231.560657 148.82814 
L 230.437991 146.24044 
L 229.559507 143.645371 
L 229.013283 141.346527 
L 228.739533 139.219384 
L 228.732262 137.318574 
L 228.965908 135.675372 
L 229.393158 134.317319 
L 229.942429 133.253375 
L 230.662854 132.317362 
L 231.539774 131.53769 
L 232.54316 130.929478 
L 233.831654 130.431195 
L 235.208254 130.138239 
L 236.832868 130.01945 
L 238.663292 130.105891 
L 240.857739 130.44679 
L 243.325194 131.076942 
L 245.932704 131.979871 
L 248.671306 133.160418 
L 251.547548 134.645338 
L 254.288974 136.309809 
L 256.722022 138.042282 
L 258.594174 139.63529 
L 259.796411 140.931794 
L 260.337168 141.810176 
L 260.418321 142.310909 
L 260.25665 142.56158 
L 259.904923 142.670553 
L 259.258761 142.615233 
L 258.189378 142.286434 
L 256.605652 141.557591 
L 254.524103 140.350237 
L 251.998018 138.618234 
L 249.299859 136.495247 
L 246.58641 134.077496 
L 244.04602 131.516861 
L 241.920803 129.078613 
L 240.13969 126.704765 
L 238.895968 124.701405 
L 238.091839 123.021408 
L 237.680174 121.711957 
L 237.561375 120.645075 
L 237.69495 119.828671 
L 238.013888 119.252341 
L 238.527058 118.823256 
L 239.213186 118.558129 
L 240.181987 118.448314 
L 241.437328 118.546665 
L 243.137032 118.928105 
L 245.251137 119.651023 
L 247.854635 120.795611 
L 250.907025 122.400322 
L 254.203775 124.396076 
L 257.493987 126.650544 
L 260.437417 128.935896 
L 262.623015 130.900379 
L 263.963372 132.379703 
L 264.560492 133.334486 
L 264.66281 133.863168 
L 264.511963 134.122541 
L 264.171446 134.240794 
L 263.527536 134.20343 
L 262.404935 133.894112 
L 260.660282 133.167763 
L 258.189532 131.885453 
L 255.098291 130.025797 
L 251.533366 127.619883 
L 247.808089 124.836322 
L 244.430909 122.047899 
L 241.720723 119.545752 
L 239.94034 117.633649 
L 239.079538 116.428588 
L 238.874345 115.837196 
L 238.966083 115.601993 
L 239.25587 115.520582 
L 239.81933 115.621336 
L 240.940694 116.072502 
L 242.891221 117.128513 
L 245.813906 118.98613 
L 249.685452 121.724872 
L 253.986058 125.044674 
L 257.784499 128.247696 
L 260.509826 130.818058 
L 262.080009 132.577664 
L 262.770721 133.650138 
L 262.912224 134.228576 
L 262.779271 134.511489 
L 262.457525 134.646845 
L 261.843323 134.638206 
L 260.740097 134.380453 
L 258.895918 133.701152 
L 256.048109 132.395244 
L 251.915274 130.235428 
L 246.026394 126.885556 
L 235.875191 121.064811 
L 234.5736 120.571229 
L 234.2018 120.626497 
L 234.169383 120.842841 
L 234.399946 121.35015 
L 235.148293 122.376718 
L 236.930884 124.407176 
L 240.665248 128.279648 
L 253.378341 141.26278 
L 254.630369 142.919299 
L 255.04137 143.786873 
L 255.035447 144.221419 
L 254.822682 144.438956 
L 254.387059 144.53225 
L 253.561378 144.455766 
L 252.067175 144.072133 
L 249.391595 143.12976 
L 243.83316 140.890067 
L 236.618567 138.044014 
L 232.796852 136.761771 
L 229.836868 135.997094 
L 227.587789 135.64718 
L 225.934233 135.605329 
L 224.70571 135.77328 
L 223.733897 136.112329 
L 223.010279 136.576559 
L 222.425333 137.213985 
L 222.004429 138.018263 
L 221.754799 138.967349 
L 221.667103 140.216833 
L 221.796459 141.772977 
L 222.172073 143.621189 
L 222.868756 145.934791 
L 223.985876 148.836556 
L 225.570753 152.306839 
L 227.679852 156.37734 
L 230.424176 161.172262 
L 234.6401 168.016726 
L 236.103131 170.624834 
L 236.484664 171.716821 
L 236.483762 172.323363 
L 236.269448 172.711758 
L 235.846242 172.992842 
L 235.090064 173.20239 
L 233.68126 173.333982 
L 225.02112 173.814252 
L 222.99005 174.260756 
L 221.311707 174.845313 
L 219.906772 175.57073 
L 218.803378 176.390519 
L 217.930691 177.316824 
L 217.275788 178.329271 
L 216.79903 179.479188 
L 216.526643 180.738105 
L 216.474279 182.0253 
L 216.638579 183.361087 
L 217.046648 184.784429 
L 217.707194 186.239562 
L 218.670084 187.77533 
L 219.93727 189.345222 
L 221.556085 190.976443 
L 223.650029 192.753349 
L 226.658928 195.276789 
L 226.72887 195.608051 
L 226.544154 195.815252 
L 226.0129 196.017542 
L 224.597674 196.271967 
L 218.314077 197.282301 
L 215.329273 198.035305 
L 212.871659 198.880061 
L 210.877684 199.794257 
L 209.374555 200.707166 
L 208.191833 201.671988 
L 207.337305 202.650651 
L 206.777881 203.623289 
L 206.460158 204.642149 
L 206.386965 205.698954 
L 206.558433 206.794805 
L 206.956127 207.884332 
L 207.620965 209.062885 
L 208.621978 210.369243 
L 209.988265 211.775636 
L 211.83434 213.340554 
L 214.264676 215.092753 
L 218.892601 218.346702 
L 218.932341 218.63406 
L 218.725048 218.818199 
L 218.132124 218.994797 
L 216.574768 219.182193 
L 209.329421 219.909756 
L 206.506457 220.463971 
L 204.30593 221.110538 
L 202.653389 221.806748 
L 201.412771 222.549005 
L 200.504141 223.34439 
L 199.913014 224.161417 
L 199.606123 224.943686 
L 199.510825 225.800138 
L 199.65195 226.739392 
L 200.026804 227.70194 
L 200.679307 228.766891 
L 201.68865 229.976735 
L 203.168819 231.373859 
L 205.139662 232.910243 
L 207.830584 234.710009 
L 212.305352 237.657669 
L 212.470026 238.014196 
L 212.33527 238.210158 
L 211.897125 238.382534 
L 210.759064 238.548805 
L 207.018192 238.786492 
L 202.919407 239.152795 
L 200.020741 239.62313 
L 197.840285 240.182689 
L 196.120962 240.848469 
L 194.933104 241.537217 
L 194.159579 242.213475 
L 193.674851 242.888228 
L 193.404901 243.613585 
L 193.352064 244.411921 
L 193.539447 245.291581 
L 193.960833 246.199374 
L 194.731471 247.293336 
L 195.868184 248.499448 
L 197.527311 249.910548 
L 199.758346 251.500629 
L 203.016653 253.526347 
L 206.089732 255.486887 
L 206.473887 255.960222 
L 206.422413 256.191293 
L 206.121306 256.365392 
L 205.315308 256.529796 
L 203.237032 256.683663 
L 196.767317 257.116204 
L 193.854145 257.549721 
L 191.681403 258.080775 
L 190.082483 258.682166 
L 188.918655 259.350993 
L 188.175371 260.02442 
L 187.730783 260.722802 
L 187.535217 261.485518 
L 187.588307 262.283329 
L 187.87786 263.124467 
L 188.44399 264.071736 
L 189.370583 265.171 
L 190.718205 266.416783 
L 192.65434 267.888536 
L 195.377858 269.656527 
L 200.631299 272.988897 
L 200.770044 273.327352 
L 200.623621 273.517832 
L 200.160536 273.686993 
L 198.978056 273.840853 
L 195.324222 274.015603 
L 190.881583 274.321293 
L 187.951038 274.737431 
L 185.784355 275.258062 
L 184.207834 275.857123 
L 183.159462 276.475127 
L 182.444171 277.156417 
L 182.078382 277.785818 
L 181.927743 278.452295 
L 182.003369 279.2527 
L 182.321851 280.081182 
L 182.915568 281.005463 
L 183.943258 282.151444 
L 185.388773 283.414145 
L 187.449012 284.907116 
L 190.411836 286.757494 
L 194.950414 289.56645 
L 195.239737 289.987102 
L 195.156376 290.199319 
L 194.81085 290.370128 
L 193.907203 290.527416 
L 191.549531 290.664062 
L 185.398169 291.001039 
L 182.477436 291.386199 
L 180.314829 291.877042 
L 178.738793 292.44905 
L 177.689253 293.045416 
L 177.035435 293.634676 
L 176.649632 294.235823 
L 176.475645 294.895431 
L 176.516775 295.593696 
L 176.814968 296.435583 
L 177.399983 297.361566 
L 178.347365 298.426374 
L 179.79528 299.695907 
L 181.88204 301.202325 
L 184.856662 303.047829 
L 189.54645 305.926391 
L 189.835564 306.346149 
L 189.750961 306.559291 
L 189.403933 306.729371 
L 188.493968 306.88541 
L 186.155801 307.014988 
L 179.842625 307.339037 
L 176.906037 307.720365 
L 174.747957 308.212561 
L 173.190724 308.791841 
L 172.169026 309.403143 
L 171.549349 310.019428 
L 171.209578 310.674016 
L 171.119543 311.373563 
L 171.282256 312.162212 
L 171.73042 313.045506 
L 172.541405 314.076279 
L 173.80007 315.272219 
L 175.572813 316.633828 
L 178.09731 318.278504 
L 184.485111 322.300008 
L 184.499938 322.566377 
L 184.271039 322.74307 
L 183.63307 322.905381 
L 182.053328 323.040319 
L 172.55303 323.609031 
L 170.097296 324.06069 
L 168.396884 324.583588 
L 167.224714 325.159431 
L 166.470333 325.76317 
L 166.064418 326.331004 
L 165.866393 326.984225 
L 165.904604 327.696843 
L 166.169093 328.439604 
L 166.755193 329.361391 
L 167.707938 330.412212 
L 169.165335 331.663694 
L 171.266885 333.151632 
L 174.271931 334.98584 
L 178.968891 337.82944 
L 179.291385 338.265675 
L 179.219011 338.484079 
L 178.888782 338.654912 
L 178.02188 338.809998 
L 175.830193 338.932149 
L 168.934516 339.255942 
L 166.064577 339.629109 
L 164.01747 340.100773 
L 162.576102 340.642138 
L 161.651668 341.195164 
L 161.040122 341.806706 
L 160.748498 342.36873 
L 160.654021 342.958651 
L 160.764631 343.658646 
L 161.134136 344.467074 
L 161.847001 345.429699 
L 163.006989 346.574025 
L 163.036871 346.6 
L 163.036871 346.6 
" clip-path="url(#p5f91b4a9ee)" style="fill: none; stroke: #2ca02c; stroke-width: 1.5; stroke-linecap: square"/>
   </g>
   <g id="line2d_23">
    <defs>
     <path id="m8cecc4f461" d="M 0 3 
C 0.795609 3 1.55874 2.683901 2.12132 2.12132 
C 2.683901 1.55874 3 0.795609 3 0 
C 3 -0.795609 2.683901 -1.55874 2.12132 -2.12132 
C 1.55874 -2.683901 0.795609 -3 0 -3 
C -0.795609 -3 -1.55874 -2.683901 -2.12132 -2.12132 
C -2.683901 -1.55874 -3 -0.795609 -3 0 
C -3 0.795609 -2.683901 1.55874 -2.12132 2.12132 
C -1.55874 2.683901 -0.795609 3 0 3 
z
" style="stroke: #2ca02c"/>
    </defs>
    <g clip-path="url(#p5f91b4a9ee)">
     <use xlink:href="#m8cecc4f461" x="159.120533" y="385.571393" style="fill: #2ca02c; stroke: #2ca02c"/>
    </g>
   </g>
   <g id="patch_3">
    <path d="M 100.718872 307.584 
L 100.718872 41.472 
" style="fill: none; stroke: #000000; stroke-width: 0.8; stroke-linejoin: miter; stroke-linecap: square"/>
   </g>
   <g id="patch_4">
    <path d="M 371.601128 307.584 
L 371.601128 41.472 
" style="fill: none; stroke: #000000; stroke-width: 0.8; stroke-linejoin: miter; stroke-linecap: square"/>
   </g>
   <g id="patch_5">
    <path d="M 100.718872 307.584 
L 371.601128 307.584 
" style="fill: none; stroke: #000000; stroke-width: 0.8; stroke-linejoin: miter; stroke-linecap: square"/>
   </g>
   <g id="patch_6">
    <path d="M 100.718872 41.472 
L 371.601128 41.472 
" style="fill: none; stroke: #000000; stroke-width: 0.8; stroke-linejoin: miter; stroke-linecap: square"/>
   </g>
  </g>
 </g>
 <defs>
  <clipPath id="p5f91b4a9ee">
   <rect x="100.718872" y="41.472" width="270.882256" height="266.112"/>
  </clipPath>
 </defs>
</svg>
